<?xml version="1.0" encoding="utf-8"?>
<!-- Generator: Adobe Illustrator 16.0.0, SVG Export Plug-In . SVG Version: 6.00 Build 0)  -->
<!DOCTYPE svg PUBLIC "-//W3C//DTD SVG 1.1//EN" "http://www.w3.org/Graphics/SVG/1.1/DTD/svg11.dtd">
<svg version="1.1" xmlns="http://www.w3.org/2000/svg" xmlns:xlink="http://www.w3.org/1999/xlink" x="0px" y="0px" width="345px"
	 height="232px" viewBox="0 0 345 232" enable-background="new 0 0 345 232" xml:space="preserve">
<g id="fish">
	<g>
		<path fill="#FDDDD1" d="M117.1,89.21c-8.642-4.655-6.769-4.032-18.292-2.929c0.337-3.743,6.386-7.775,20.165-9.359
			C118.973,76.922,115.948,90.362,117.1,89.21"/>
		<path fill="#0FA39F" d="M172.269,109.9c93,0,168.911,26.737,168.911,59.471c0,32.786-75.911,59.523-168.911,59.523
			S3.406,202.157,3.406,169.371C3.406,136.636,79.269,109.9,172.269,109.9"/>
		<path fill="#04B2AD" d="M249.616,129.964c4.033,72.243,3.744,71.954-42.397,80.356
			C337.766,201.487,321.491,137.739,249.616,129.964"/>
		<path fill="#6DD2E7" d="M171.02,119.597c68.273,0,123.971,20.737,123.971,46.128c0,25.441-55.693,46.179-123.971,46.179
			c-68.229,0-123.923-20.737-123.923-46.179C47.097,140.332,102.79,119.597,171.02,119.597"/>
		<path fill="#B0E6FA" d="M242.992,140.189c69.522,17.712,24.678,37.104-9.938,40.993
			C272.33,165.438,290.668,158.766,242.992,140.189"/>
		<path fill="#00BFBF" d="M179.519,133.707c50.849,0,92.329,11.713,92.329,26.019c0,14.256-41.48,25.921-92.329,25.921
			c-50.847,0-92.329-11.665-92.329-25.921C87.189,145.42,128.675,133.707,179.519,133.707"/>
		<path fill="#FCBE63" d="M109.85,89.02c-6.386,14.352,14.501,70.61,25.063,72.002c37.645,7.441,54.449,7.057,97.322-9.072
			c-23.575-51.264-46.812-58.8-76.437-68.735l-45.948,5.808"/>
		<path fill="#F38630" d="M157.527,84.458c12.867,2.545,27.128,7.537,42.926,20.929c14.451,13.97-4.898,26.401-14.98,7.873
			C174.957,103.563,166.699,93.051,157.527,84.458"/>
		<path fill="#F38630" d="M110.57,109.327c7.729,37.633,55.07,52.895,84.357,53.615c-21.126,6.384-44.846,3.07-66.594-3.554
			c-10.322-14.832-14.835-32.112-17.764-50.063"/>
		<path fill="#FA6900" d="M160.457,122.574c3.602,11.136-6.866,20.977-12.34,16.656L160.457,122.574"/>
		<path fill="#F49D62" d="M135.873,130.253c-1.872-5.76,6.866-10.56,25.16-8.256l-3.649,12.385
			c-3.41,4.512-5.617,4.849-10.659,4.751C141.299,137.165,138.081,133.997,135.873,130.253"/>
		<path fill="#FA6900" d="M191.522,114.556c7.635,3.793,7.49,14.353,2.401,14.977L191.522,114.556"/>
		<path fill="#FA6900" d="M205.975,121.566c7.682,3.84,7.489,14.351,2.448,15.023L205.975,121.566"/>
		<path fill="#F49D62" d="M197.426,138.415c-3.938-1.97-14.26-18.961,8.547-17.377l4.609,8.208c0.624,4.08-0.289,5.424-2.929,8.016
			C203.859,139.086,200.547,139.134,197.426,138.415"/>
		<path fill="#FF9831" d="M182.974,131.355c-3.985-1.967-14.31-18.913,8.545-17.377l4.609,8.209
			c0.624,4.128-0.336,5.425-2.976,8.017C189.358,132.026,186.046,132.123,182.974,131.355"/>
		<path fill="#FA6900" d="M176.687,143.599c7.684,3.792,7.491,14.352,2.401,15.024L176.687,143.599"/>
		<path fill="#FFA600" d="M168.139,160.398c-3.938-1.919-14.213-18.912,8.547-17.376l4.609,8.209
			c0.625,4.127-0.337,5.424-2.977,8.016C174.523,161.119,171.211,161.167,168.139,160.398"/>
		<path fill="#FA6900" d="M193.971,133.565c7.683,3.84,7.49,14.351,2.449,15.023L193.971,133.565"/>
		<path fill="#F49D62" d="M185.423,150.414c-3.937-1.968-14.261-18.961,8.546-17.377l4.61,8.208c0.623,4.08-0.288,5.426-2.929,8.017
			C191.856,151.087,188.543,151.133,185.423,150.414"/>
		<path fill="#FA6900" d="M220.186,129.293c5.522,2.735,5.427,10.368,1.728,10.849L220.186,129.293"/>
		<path fill="#F49D62" d="M213.989,141.438c-2.88-1.392-10.321-13.68,6.196-12.576l3.312,5.952c0.48,2.977-0.239,3.937-2.112,5.809
			C218.647,141.917,216.248,141.965,213.989,141.438"/>
		<path fill="#FA6900" d="M206.215,112.684c4.128,2.017,4.032,7.681,1.296,8.016L206.215,112.684"/>
		<path fill="#F49D62" d="M201.652,121.708c-2.161-1.056-7.682-10.176,4.563-9.359l2.496,4.416c0.336,2.208-0.193,2.928-1.584,4.32
			C205.061,122.045,203.285,122.092,201.652,121.708"/>
		<path fill="#FA6900" d="M159.879,148.014c4.129,2.016,4.033,7.681,1.296,8.016L159.879,148.014"/>
		<path fill="#FF9831" d="M155.319,157.038c-2.161-1.057-7.682-10.176,4.562-9.359l2.496,4.416c0.336,2.208-0.191,2.928-1.585,4.319
			C158.728,157.374,156.952,157.422,155.319,157.038"/>
		<path fill="#FA6900" d="M213.367,137.406c7.636,3.792,7.49,14.352,2.4,15.023L213.367,137.406"/>
		<path fill="#FFA600" d="M204.822,154.206c-3.985-1.919-14.309-18.912,8.545-17.376l4.609,8.208
			c0.625,4.127-0.334,5.425-2.975,8.017C211.208,154.926,207.896,154.974,204.822,154.206"/>
		<path fill="#FA6900" d="M175.771,113.069c9.651,6.625,7.347,20.881,0.384,20.785L175.771,113.069"/>
		<path fill="#F49D62" d="M161.03,134.191c-4.993-3.456-1.008-12.578,14.837-21.889l4.656,12c0.097,5.713-1.486,7.248-5.568,10.272
			C169.482,136.351,165.064,135.775,161.03,134.191"/>
		<path fill="#FA6900" d="M167.37,134.908c4.705,7.104-0.721,16.129-5.378,14.207L167.37,134.908"/>
		<path fill="#F49D62" d="M151.621,145.182c-2.496-3.696,2.737-8.784,16.037-10.8l-0.145,9.456
			c-1.439,3.841-2.929,4.512-6.529,5.424C156.807,148.974,153.879,147.39,151.621,145.182"/>
		<path fill="#FA6900" d="M179.372,122.908c4.705,7.105-0.721,16.13-5.426,14.209L179.372,122.908"/>
		<path fill="#F49D62" d="M163.626,133.182c-2.496-3.696,2.688-8.783,16.036-10.8l-0.145,9.455c-1.488,3.84-2.977,4.512-6.577,5.424
			C168.762,136.973,165.883,135.39,163.626,133.182"/>
		<path fill="#FA6900" d="M179.759,101.502c8.065-2.881,15.556,4.512,12.532,8.639L179.759,101.502"/>
		<path fill="#FF9831" d="M186,119.307c-4.128,1.536-7.873-4.752-6.674-18.192l9.171,2.353c3.41,2.4,3.65,3.984,3.745,7.68
			C190.946,115.18,188.689,117.578,186,119.307"/>
		<path fill="#FF9831" d="M196.275,117.485c-2.21,1.632-5.57-1.44-7.203-9.697l5.857-0.24c2.497,0.816,2.93,1.729,3.65,3.937
			C198.482,114.125,197.57,115.949,196.275,117.485"/>
		<path fill="#FF9831" d="M177.55,101.548c-2.257,1.633-5.618-1.44-7.25-9.695l5.856-0.239c2.496,0.815,2.929,1.727,3.649,3.935
			C179.709,98.141,178.847,100.012,177.55,101.548"/>
		<path fill="#FA6900" d="M173.469,99.871c5.666-2.641,10.133,4.942,7.779,8.976L173.469,99.871"/>
		<path fill="#F49D62" d="M176.252,117.773c-2.93,1.394-4.946-4.943-3.025-18.287l5.954,2.592c2.112,2.447,2.208,4.079,1.921,7.776
			C179.9,113.79,178.219,116.143,176.252,117.773"/>
		<path fill="#602623" d="M173.611,97.47c1.92,5.279,4.849,22.943-19.35,28.465c-10.516,1.487-27.128-5.138-28.809-8.929
			L173.611,97.47"/>
		<path fill="#F38630" d="M156.376,84.267c-7.49-19.536-19.879-18.527-26.121-24.336c-14.739,10.944-19.301,24.96-15.891,41.954
			C149.797,152.286,202.563,99.677,156.376,84.267"/>
		<path fill="#F49D62" d="M119.163,80.234c-3.025,10.369-3.073,19.681,0,28.129c-8.594-1.535-10.13-10.032-9.938-18.191
			C109.225,90.172,119.884,80.858,119.163,80.234"/>
		<path fill="#602623" d="M127.617,87.388l10.706-10.753c2.161,0,7.252,2.256,9.171,4.224
			C160.843,97.131,121.231,100.539,127.617,87.388"/>
		<path fill="#FCBE63" d="M140.293,77.5c-13.35-9.552-20.358,14.305-2.498,10.321L140.293,77.5"/>
		<path fill="#BA151B" d="M121.856,57.051c-7.684,11.904-11.62,18.768-10.468,23.231l3.456,11.329
			C119.406,78.314,121.712,66.794,121.856,57.051"/>
		<path fill="#FA6900" d="M120.799,57.485c4.705-2.545,8.258-3.217,10.611,3.551c-10.324,6.721-11.909,22.13-17.863,33.218
			C117.389,82.157,122.671,68.621,120.799,57.485"/>
		<path fill="#863B22" d="M136.162,76.829c-4.706,0-8.595,2.496-8.595,5.616c0,3.119,3.889,5.663,8.595,5.663
			c4.753,0,8.594-2.543,8.594-5.663C144.756,79.324,140.915,76.829,136.162,76.829"/>
		<path fill="#DFA280" d="M136.545,77.163c-3.217,0-5.811,1.727-5.811,3.84c0,2.063,2.594,3.792,5.811,3.792s5.81-1.729,5.81-3.792
			C142.354,78.89,139.762,77.163,136.545,77.163"/>
		<path fill="#231F20" d="M136.162,77.691c-2.354,0-4.273,1.248-4.273,2.783c0,1.537,1.92,2.784,4.273,2.784
			s4.272-1.247,4.272-2.784C140.435,78.939,138.514,77.691,136.162,77.691"/>
		<path fill="#FCBE63" d="M145.955,75.722c9.026,2.976,10.515,17.376-7.346,19.057C155.413,95.643,158.918,79.754,145.955,75.722"/>
		<path fill="#FA6900" d="M130.063,114.845c-12.819-2.017-19.253,3.456-22.854,12.336c-4.513,14.784-3.121,27.36,4.851,37.683
			c17.764,1.919,26.31-3.792,25.638-17.184c-6.481-2.737-10.18-9.554-11.09-18.05C126.607,129.63,128.671,115.661,130.063,114.845"
			/>
		<path fill="#FFFFFF" d="M131.983,79.372c3.505-1.824,5.81-0.625,7.586,2.16c0.96,0.097,2.642,0.526,1.634-1.009
			C136.832,77.931,134.191,78.026,131.983,79.372"/>
		<path fill="#231F20" d="M137.603,77.117c-2.257-0.911-12.003-0.527-9.843,6.24c0.528,2.496,2.401,3.792,5.09,4.272
			C128.432,82.877,127.135,76.445,137.603,77.117"/>
		<path fill="#FFFFFF" d="M135.201,87.053c4.369-0.145,6.818-1.394,8.451-3.841c0.768-0.672,0.768,0.479,0.049,1.056
			C141.875,86.667,138.803,87.532,135.201,87.053"/>
		<path fill="#F0FAFE" d="M131.072,60.699l-3.648,3.984c7.683-2.016,14.644,2.977,21.894,8.592
			C144.372,66.795,137.458,62.811,131.072,60.699"/>
		<path fill="#FA6900" d="M121.998,56.908c-4.609,4.031-12.531,19.343-10.803,22.318l1.201,3.985
			c-1.584-9.696,5.906-16.128,9.074-22.657C121.471,60.555,121.998,57.243,121.998,56.908"/>
		<path fill="#FEEFE9" d="M118.012,80.763c2.161-7.536,7.298-19.487,4.32-21.888c1.394-0.913,1.489-0.864,3.313-0.481
			C126.606,60.554,122.237,66.891,118.012,80.763"/>
		<path fill="#231F20" d="M119.838,63.869c-4.848,4.224-7.345,9.552-7.777,18.191c-0.432,1.489,0.816,4.13,2.449,4.994
			C112.349,86.622,117.486,65.453,119.838,63.869"/>
		<path fill="#FA6900" d="M98.904,85.373c-1.586,1.968-1.056,5.473,1.729,6.24c6.962-2.592,8.834-2.977,13.684,0.863
			c-0.721-0.719,2.16-3.887,1.728-4.703C112.779,81.197,107.019,81.053,98.904,85.373"/>
		<path fill="#FFFFFF" d="M99.625,88.348c-0.721-1.057-0.433-1.44,0.336-2.16c3.648-1.681,6.867-2.352,10.082-2.304
			C105.962,84.075,101.978,85.563,99.625,88.348"/>
		<path fill="#FF4E00" d="M140.674,105.726l-0.623,16.416l1.824,0.336L140.674,105.726"/>
		<path fill="#FF4E00" d="M143.652,106.397l1.824,16.416l2.017,0.624L143.652,106.397"/>
		<path fill="#FF4E00" d="M146.342,104.428l5.28,18.673h2.161L146.342,104.428"/>
		<path fill="#FF4E00" d="M148.645,102.747l9.459,19.057l2.112-0.671L148.645,102.747"/>
		<path fill="#FF4E00" d="M150.951,100.444l13.587,18.528l1.345-0.816L150.951,100.444"/>
		<path fill="#FF4E00" d="M149.988,97.804l19.781,16.705l1.008-1.153L149.988,97.804"/>
		<path fill="#FF4E00" d="M154.599,98.475l18.821,10.752l0.336-1.681L154.599,98.475"/>
		<path fill="#FCBE63" d="M166.458,92.812c10.516,12.864-0.049,22.751-12.867,28.465
			C165.833,114.508,173.899,105.867,166.458,92.812"/>
		<path fill="#E0E4CC" d="M129.104,118.014c-11.044,11.329-10.757,29.713,8.93,29.953
			C127.901,140.142,125.117,132.029,129.104,118.014"/>
		<path fill="#FF4E00" d="M127.134,115.996c-7.635,7.632-14.739,14.929-22.374,22.512l-0.337,2.977
			C104.423,141.484,127.758,116.332,127.134,115.996"/>
		<path fill="#FF4E00" d="M128.432,118.303l-23.671,26.689v3.313L128.432,118.303"/>
		<path fill="#FF4E00" d="M123.015,127.44l-17.437,24.175l1.007,3.457L123.015,127.44"/>
		<path fill="#FF4E00" d="M121.133,133.227L107.736,157.9l1.969,3.12L121.133,133.227"/>
		<path fill="#FF4E00" d="M111.388,163.805l10.081-25.968c-2.688,9.119-5.376,18.24-8.113,27.265L111.388,163.805"/>
		<path fill="#FF4E00" d="M123.488,143.501l-6.963,21.602c0.912,0.479,0.864,0.911,2.496,0.191L123.488,143.501"/>
		<path fill="#F0FAFE" d="M176.639,120.076c4.513,7.584-1.776,15.841-9.65,12.625C174.431,131.309,177.646,127.084,176.639,120.076"
			/>
		<path fill="#FFFFFF" d="M180.524,133.276c3.602,6.048-1.439,12.624-7.729,10.08C178.748,142.254,181.293,138.893,180.524,133.276"
			/>
		<path fill="#FFFFFF" d="M178.367,148.974c1.057,6.96-6.098,11.184-10.947,6.432C173.326,156.605,176.976,154.445,178.367,148.974"
			/>
		<path fill="#FFFDDE" d="M215.047,142.302c3.169,5.376-1.248,11.185-6.865,8.928C213.464,150.222,215.72,147.246,215.047,142.302"
			/>
		<path fill="#FFFDDE" d="M206.694,125.887c3.168,5.376-1.297,11.232-6.866,8.929C205.061,133.807,207.365,130.832,206.694,125.887"
			/>
		<path fill="#F0FAFE" d="M183.502,166.445c21.751-4.943,61.027-15.121,43.406-24c10.851,1.247,20.358,6.863,16.182,9.455
			C220.764,165.726,203.382,161.645,183.502,166.445"/>
	</g>
</g>
<g id="fly">
	<path fill="#231F20" d="M89.213,19.479l-0.815-0.912l0.48-0.432l1.344,1.583L89.213,19.479"/>
	<path fill="#231F20" d="M90.702,20.292c-2.545,1.633-5.138,2.976-7.826,3.841c-1.056-2.017-1.392-5.089-0.815-8.256
		c-2.594-1.49-5.377,0.047-8.355,1.103l-0.529-0.96l0.865,0.576c3.169-1.536,5.81-2.735,8.546-1.104
		c-0.334,2.879-0.479,6,0.721,7.775c2.544-0.815,5.187-2.207,7.538-3.505C90.846,19.763,90.461,20.292,90.702,20.292"/>
	<path fill="#231F20" d="M89.742,20.916c1.92-2.352,3.504-4.8,4.657-7.392c-1.873-1.248-4.849-1.921-8.066-1.681
		c-1.248-2.735,0.624-5.328,1.969-8.159L87.39,3.012l0.48,0.96c-1.824,2.975-3.313,5.472-1.97,8.4
		c2.834-0.048,5.955,0.145,7.634,1.488c-1.104,2.448-2.784,4.943-4.321,7.15C89.213,21.011,89.79,20.677,89.742,20.916"/>
	<path fill="#BCAA9F" d="M91.039,19.957c3.889-5.378,8.065-10.514,13.202-15.025c1.776-0.287,7.01,0.337,5.091,1.872
		c-4.85,4.56-9.411,8.352-13.732,11.664C93.391,19.86,91.901,20.388,91.039,19.957"/>
	<path fill="#FDD721" d="M91.231,20.341c4.032-4.704,11.378-13.394,17.86-14.688c-1.824-0.529-3.218-0.768-4.609-0.384
		C100.017,10.356,94.352,13.908,91.231,20.341"/>
	<path fill="#826D57" d="M91.855,19.524c3.889-4.896,8.017-9.938,12.771-14.018c0.575-0.479,1.2-0.431,1.777-0.622
		c-0.722,0.047-1.345-0.098-2.112,0.191c-4.658,3.792-8.836,8.879-12.917,14.257C91.374,19.333,91.855,19.379,91.855,19.524"/>
	<path fill="#634D39" d="M92.049,19.718c4.129-4.175,8.642-8.736,13.348-13.056l3.36,0.433l-3.265-0.193
		C104.052,7.43,91.185,20.006,92.049,19.718"/>
	<path fill="#634D39" d="M92.957,20.052l11.618-10.896c1.057-0.672,1.921-0.624,2.834-0.911c-0.961,0.479-2.161,0.432-2.929,1.248
		L92.957,20.052"/>
	<path fill="#634D39" d="M96.753,14.917c1.152-1.297,2.688-1.345,4.033-2.016l-2.929,0.768
		C97.521,14.101,97.137,14.531,96.753,14.917"/>
	<path fill="#634D39" d="M100.209,11.316c0.576-0.097,1.729-0.673,2.689-0.481l0.431-0.575
		C102.32,10.547,101.265,10.931,100.209,11.316"/>
	<path fill="#634D39" d="M97.663,15.638l-1.632,0.144L95.6,16.118C95.6,16.118,97.472,15.589,97.663,15.638"/>
	<path fill="#634D39" d="M103.761,8.244c0.192-0.145,0.722,0.673,1.105,1.057l-0.768-1.393
		C104.002,8.004,103.857,8.147,103.761,8.244"/>
	<path fill="#634D39" d="M102.176,9.778c-0.575-0.287-1.248-0.911-1.632-0.479l0.384-0.578L102.176,9.778"/>
	<path fill="#634D39" d="M99.537,12.035C99.008,11.844,98.48,11.46,98,11.604l-0.289,0.624
		C98.049,11.555,98.864,11.988,99.537,12.035"/>
	<path fill="#634D39" d="M99.344,13.379l2.257-2.448l0.625-0.191L99.344,13.379"/>
	<path fill="#634D39" d="M96.655,13.331l-0.816,2.353l0.528-0.384L96.655,13.331"/>
	<path fill="#634D39" d="M92.957,18.9l2.785-1.439l0.624-0.769L92.957,18.9"/>
	<path fill="#634D39" d="M98.624,14.819l-1.248,2.16l-0.673,0.576L98.624,14.819"/>
	<path fill="#634D39" d="M98.958,15.73l1.585-2.785l-1.153,2.448L98.958,15.73"/>
	<path fill="#634D39" d="M101.314,13.762l1.536-2.977l-1.201,2.93L101.314,13.762"/>
	<path fill="#634D39" d="M103.618,11.893l3.553-4.754l0.048-0.335L103.618,11.893"/>
	<path fill="#634D39" d="M102.896,9.013L104,5.895l-0.528,0.286L102.896,9.013"/>
	<path fill="#BCAA9F" d="M90.125,21.061c-5.762,3.265-11.332,6.865-16.373,11.521c-0.48,1.679-0.432,6.96,1.296,5.184
		c5.09-4.272,9.315-8.399,13.107-12.337C89.789,23.366,90.459,21.926,90.125,21.061"/>
	<path fill="#FDD721" d="M90.511,21.252c-5.137,3.505-14.548,10.129-16.516,16.465c-0.529-1.44-0.48-3.456-0.097-5.232
		C79.42,28.598,83.742,23.701,90.511,21.252"/>
	<path fill="#967E71" d="M91.423,21.492c0.96,2.159,3.84,6.144,6.096,8.017c1.489,1.2,3.362,1.008,1.729-1.344
		C97.376,25.236,93.295,21.828,91.423,21.492"/>
	<path fill="#FDD721" d="M96.992,26.916l0.527,1.104l-0.576,0.289C97.232,27.924,96.992,27.203,96.992,26.916"/>
	<path fill="#FDD721" d="M98.385,29.076c-0.096-0.191-0.577-0.911-0.674-1.104c-0.046,0.192,0.338,0.912,0.049,1.2
		C97.76,29.173,98.385,29.027,98.385,29.076"/>
	<path fill="#FDD721" d="M93.487,23.173l0.864,0.768l0.528-0.289L93.487,23.173"/>
	<path fill="#FDD721" d="M94.592,24.035l0.625,0.722l0.527-0.289L94.592,24.035"/>
	<path fill="#FDD721" d="M95.312,24.899l0.959,0.865l0.289-0.432C96.176,25.524,95.647,25.092,95.312,24.899"/>
	<path fill="#FDD721" d="M96.271,25.86l0.864,0.815c0.098-0.239,0.192-0.432,0.289-0.672C97.424,26.389,96.32,26.1,96.271,25.86"/>
	<path fill="#FDD721" d="M97.327,26.868c0.097,0.144,0.529,0.624,0.624,0.768c0.192-0.096,0.241-0.24,0.289-0.576
		C98,27.252,97.52,26.773,97.327,26.868"/>
	<path fill="#FDD721" d="M98,27.827l0.769,0.77l0.288-0.528C98.721,28.26,98.336,27.876,98,27.827"/>
	<path fill="#FDD721" d="M95.935,26.103L96.8,27.11l-0.722,0.384C96.415,27.11,96.078,26.343,95.935,26.103"/>
	<path fill="#FDD721" d="M95.215,25.143l0.864,0.959l-0.864,0.433C95.839,25.861,95.022,25.383,95.215,25.143"/>
	<path fill="#FDD721" d="M94.255,24.276l0.673,0.768l-0.528,0.575C94.591,25.188,94.304,24.517,94.255,24.276"/>
	<path fill="#FDD721" d="M93.68,24.852l0.432-0.767c-0.144-0.192-0.577-0.72-0.721-0.912C93.582,23.557,93.871,24.228,93.68,24.852"
		/>
	<path fill="#634D39" d="M91.757,21.541c2.545,2.687,4.561,4.848,7.201,8.16c0.336,0.335,1.345,0.815,0.529-0.433
		C96.414,25.766,94.014,23.365,91.757,21.541"/>
	<path fill="#231F20" d="M97.087,29.173c1.249,0.192,2.161-0.722,1.826-1.584c0.047,0.192,0.384,0.527,0.432,0.72
		c-0.24,1.057-1.248,1.44-1.729,1.2C97.424,29.509,97.232,29.269,97.087,29.173"/>
	<path fill="#231F20" d="M96.703,28.836C97.951,28.5,98,28.5,98.624,27.252c-0.048-0.144-0.239-0.336-0.384-0.479
		c-0.048,1.054-1.105,1.63-1.873,1.678C96.463,28.549,96.655,28.74,96.703,28.836"/>
	<path fill="#231F20" d="M95.792,27.924c0.96-0.048,1.681-0.721,2.016-1.68l-0.335-0.336c-0.289,0.96-0.865,1.536-1.873,1.632
		C95.6,27.54,95.792,27.827,95.792,27.924"/>
	<path fill="#231F20" d="M95.022,26.916c1.057-0.048,1.489-0.767,1.921-1.488c-0.096-0.144-0.24-0.287-0.336-0.433
		c-0.145,0.77-0.721,1.345-1.823,1.633C94.88,26.725,94.928,26.868,95.022,26.916"/>
	<path fill="#231F20" d="M94.207,26.004c0.384-0.912,1.008-1.344,1.729-1.631l0.335,0.335c-0.862,0.287-1.295,0.911-1.775,1.584
		C94.495,26.292,94.255,25.908,94.207,26.004"/>
	<path fill="#231F20" d="M93.871,25.476c0.191-0.911,0.673-1.343,1.537-1.535c-0.289-0.192-0.097-0.145-0.337-0.337
		c-0.385,0-1.345,0.529-1.537,1.44L93.871,25.476"/>
	<path fill="#231F20" d="M92.767,23.893c0.192-0.768,0.721-1.152,1.201-1.105c0.19,0.146,0.287,0.24,0.432,0.386
		c-1.009,0-1.104,0.336-1.345,1.151C93.055,24.324,92.767,23.844,92.767,23.893"/>
	<path fill="#826D57" d="M92.239,22.787l0.673-0.623c0.095-0.577-0.24-1.296-0.722-2.016c-0.576-0.624-1.199-1.057-1.775-1.248
		c-0.433-0.097-0.817-0.049-1.202,0.048c-0.191,0.288-0.335,0.72-0.238,1.247c0.238,0.721,0.671,1.345,1.247,1.824
		C90.846,22.452,91.566,22.787,92.239,22.787"/>
	<path fill="#231F20" d="M89.502,21.156c2.017,1.247,2.929,0.239,1.921-1.728c0.624,0.575,1.489,1.439,1.728,2.543
		c0.191,0.577-0.287,0.769-0.816,1.056C91.374,23.173,90.126,22.164,89.502,21.156"/>
	<path fill="#231F20" d="M89.262,19.188c-0.191,0.529-0.097,1.057,0.24,1.681c0.24,0.192,0.433,0.335,0.673,0.527
		c-0.433-0.575-0.913-1.295-0.624-1.871c0.479,0.527,0.959,1.008,1.343,1.679l0.529,0.146c-0.049-0.193-0.097-0.386-0.145-0.529
		c-0.528-0.192-1.104-0.912-1.633-1.344c0.48-0.433,1.153,0.191,1.824,0.624l-0.431-0.672C90.415,19.044,89.742,18.9,89.262,19.188"
		/>
	<path fill="#231F20" d="M92.143,21.252c2.496-0.768,5.233-1.104,8.162-0.911c1.633,2.784,2.688,6.479,2.688,9.887
		c3.265,2.881,6.146,2.305,9.363,2.449l0.864,1.345l-1.152-1.057c-3.313,0.335-6.146,0.527-9.65-2.545
		c-0.192-3.168-0.673-6.672-2.401-9.313c-2.784-0.191-5.521,0.242-7.97,0.674C92.047,21.781,92.383,21.35,92.143,21.252"/>
	<path fill="#231F20" d="M105.492,32.243l1.297,1.248l-0.529-1.009l1.633,1.344l-0.816-1.055l1.969,1.295l-1.152-1.2l2.017,1.44
		l-1.296-1.296l2.112,0.912l-1.585-1.057L105.492,32.243"/>
	<path fill="#231F20" d="M90.799,22.692c-1.057,2.448-1.681,5.089-1.824,8.017c2.592,1.968,6.145,3.359,9.555,3.743
		c2.496,3.601,1.632,6.337,1.439,9.553l1.248,1.008l-0.961-1.248c0.722-3.264,1.201-6-1.487-9.84
		c-3.121-0.575-6.578-1.393-8.979-3.457c0.096-2.735,0.816-5.424,1.536-7.824C91.326,22.644,90.846,22.979,90.799,22.692"/>
	<path fill="#231F20" d="M100.256,37.141l1.104,1.441l-0.913-0.625l1.104,1.776l-0.913-0.96l1.058,2.111l-1.058-1.295l1.202,2.159
		l-1.152-1.392l0.672,2.16l-0.864-1.68L100.256,37.141"/>
	<path fill="#231F20" d="M91.759,20.964c2.496-1.631,5.089-2.977,7.778-3.839c1.057,2.016,1.393,5.087,0.816,8.256
		c2.592,1.487,5.377-0.048,8.354-1.104l0.576,0.96l-0.912-0.576c-3.17,1.535-5.81,2.735-8.547,1.104
		c0.337-2.88,0.48-5.953-0.72-7.777c-2.545,0.816-5.186,2.208-7.538,3.505C91.566,21.492,91.951,20.964,91.759,20.964"/>
	<path fill="#231F20" d="M102.371,26.343l1.008,0.719l-0.335-0.719l1.296,0.624l-0.577-0.673l1.634,0.481l-0.912-0.673l1.632,0.575
		l-0.96-0.719l1.824,0.047l-1.297-0.385L102.371,26.343"/>
	<path fill="#231F20" d="M90.702,22.066c-1.921,2.305-3.505,4.752-4.656,7.344c1.872,1.296,4.896,1.921,8.112,1.729
		c1.202,2.736-0.623,5.28-1.968,8.159l0.865,0.673l-0.481-0.959c1.873-2.978,3.313-5.473,2.017-8.402
		c-2.88,0-6.002-0.144-7.682-1.535c1.104-2.448,2.785-4.896,4.322-7.104C91.231,21.971,90.653,22.307,90.702,22.066"/>
	<path fill="#231F20" d="M94.93,33.207l0.575,1.104l-0.719-0.433l0.479,1.392l-0.576-0.671l0.336,1.679L94.4,35.318l0.432,1.68
		l-0.672-1.056l-0.095,1.823l-0.241-1.343L94.93,33.207"/>
	<path fill="#231F20" d="M90.845,22.403l-2.497,4.657l-0.096,1.297L90.845,22.403"/>
	<path fill="#231F20" d="M92.191,21.203l6.29-2.208l0.527,0.241L92.191,21.203"/>
	<path fill="#FDD721" d="M90.368,21.781c1.873,0.671,2.257,0.622,1.632-1.633C92.384,21.828,93.344,23.125,90.368,21.781"/>
	<path fill="#FFFDCF" d="M101.745,10.356l2.016-1.871l0.433,0.671l-0.864,0.912L101.745,10.356"/>
	<path fill="#FFFDCF" d="M96.464,15.442l1.585-1.2l0.672,0.143l-1.248,0.914L96.464,15.442"/>
	<path fill="#FFFDCF" d="M105.008,8.772L104.48,7.91l1.057-0.721l1.104,0.097l-0.912,1.056L105.008,8.772"/>
	<path fill="#FFFDCF" d="M102.656,12.37l0.385-1.055l1.823-1.873l-1.104,1.968C103.76,11.41,102.752,12.418,102.656,12.37"/>
	<path fill="#FFFDCF" d="M105.248,10.165l0.768-1.247l1.057-0.146L105.248,10.165"/>
	<path fill="#FFFDCF" d="M98.913,13.092l1.681-1.68l0.623-0.192l-1.776,1.824L98.913,13.092"/>
	<path fill="#FFFDCF" d="M100.113,12.852l2.016-1.824l0.337,0.049l-1.872,1.728L100.113,12.852"/>
	<path fill="#FFFDCF" d="M98.335,14.148h0.673l0.864-0.671L98.335,14.148"/>
</g>
</svg>
