<?xml version="1.0" encoding="utf-8"?>
<!-- Generator: Adobe Illustrator 16.0.0, SVG Export Plug-In . SVG Version: 6.00 Build 0)  -->
<!DOCTYPE svg PUBLIC "-//W3C//DTD SVG 1.1//EN" "http://www.w3.org/Graphics/SVG/1.1/DTD/svg11.dtd">
<svg version="1.1" id="Warstwa_1" xmlns="http://www.w3.org/2000/svg" xmlns:xlink="http://www.w3.org/1999/xlink" x="0px" y="0px"
	 width="221.622px" height="204.054px" viewBox="0 0 221.622 204.054" enable-background="new 0 0 221.622 204.054"
	 xml:space="preserve">
<g>
	<g>
		<g>
			<path fill="#F38630" d="M182.97,143.104c-3.831-13.422-12.357-27.262-27.773-27.645c6.368,8.76,11.629,18.174,16.228,27.971
				c4.417,9.408,9.271,20.004,9.271,30.572C186.164,164.375,185.311,153.552,182.97,143.104"/>
			<path fill="#F38630" d="M182.97,143.104c2.341,10.448,3.193,21.271-2.275,30.897c0-10.265-4.605-20.634-8.9-29.783
				c-4.726-10.066-10.052-19.756-16.598-28.759c13.493,14.619,19.922,33.375,27.188,51.452c1.095-3.546-1.159-9.548-2.159-13.005
				c-1.508-5.213-3.4-10.023-5.777-14.899c3.58,6.403,7.1,12.962,8.977,20.099C183.777,153.707,183.716,148.473,182.97,143.104"/>
		</g>
	</g>
	<path fill="#175E5E" d="M215.95,128.989c2.54,10.623,4.351,21.059,2.505,31.97c-1.664,9.844-9.643,19.973-5.236,29.824
		c-7.482-6.412-3.305-22.197-1.243-30.613C214.523,149.764,217.087,139.776,215.95,128.989"/>
	<path fill="#00BFBF" d="M192.34,119.559c6.909,7.808,12.376,15.451,14.896,25.693c-3.505-6.102-7.646-11.916-12.75-16.781
		c3.617,4.297,6.719,9.361,9.237,14.375c-3.528-5.025-8.395-9.273-13.01-13.27c3.16,3.457,6.446,6.924,8.131,11.383
		c-5.33-0.793-11-5.035-15.399-7.968c-5.518-3.677-10.626-7.888-15.237-12.651c7.518,8.588,14.265,17.289,25.563,20.879
		c2.327,0.74,5.189,0.802,7.318,1.984c1.841,1.021,1.779,3.221,2.406,4.977c0.961,2.684,3.104,4.203,5.551,5.426
		c1.455,0.728,3.462,1.824,3.654,3.615c3.172-8.465-2.982-14.047-6.311-21.27C203.279,129.197,197.821,124.413,192.34,119.559"/>
	<path fill="#FF00FF" d="M8.404,84.625c5.194-7.354,9.963-11.22,18.896-13.236c8.801-1.987,13.156-9.118,20.47-13.505
		c3.334-2,6.758-3.713,10.59-4.481c1.817-0.364,2.411,0.258,3.206-1.622c0.831-1.962,1.735-3.9,2.714-5.793
		C68.406,38,73.54,30.772,79.69,24.221c14.442-15.38,34.15-22.678,54.903-23.637c-1.512,1.978-4.311,4.74-4.424,7.416
		c-0.104,2.492,1.717,3.896,0.51,6.485c-2.457,5.261-5.133,8.991-0.378,13.745c-1.864,0.866-3.968,1.342-5.984,1.626
		c2.632,0.911,7.947,2.422,9.951,4.423c1.263,1.262,0.112,2.052,0.91,3.902c0.801,1.855,3.468,3.095,4.813,4.554
		c2.809,3.044,4.811,8.145,2.918,12.101c-2.33,4.869-1.992,7.784-0.706,13.008c-7.478-3.989-17.505-7.132-26.019-4.879
		c7.218,5.293,14.594,8.897,23.418,10.568c8.717,1.649,17.23,3.485,25.627,6.409c16.332,5.687,32.806,14.992,42.443,29.846
		c7.465,11.508,12.131,25.906,12.131,39.712c0,7.165-0.755,14.271-3.339,21.019c-2.641,6.897-5.94,13.038-2.71,20.264
		c-4.937-4.23-4.194-11.264-3.479-17.275c0.373-3.135,0.771-6.274,1.41-9.369c0.429-2.088,2.477-6.705,0.768-8.416
		c-1.916-1.918-4.688-2.662-6.569-4.684c-1.987-2.132-1.999-4.816-3.415-7.09c-1.098-1.761-5.653-1.96-7.482-2.568
		c-2.451-0.82-5.086-1.727-7.25-3.156c0.858,3.608-0.846,3.639-3.644,2.213c-3.06-1.561-5.97-3.598-8.847-5.465
		c-5.536-3.595-10.109-7.758-14.375-12.75v0.781c-2.538-0.615-5.178-4.897-6.506-7.025c1.365,3.377,3.258,7.033,3.417,10.745
		c0.174,4.072-1.081,7.715,0.008,11.733c0.931,3.438,3.669,6.373,4.162,9.949c0.569,4.121-1.299,6.521-2.418,10.256
		c-1.023,3.412,0.308,6.623,2.661,9.198c2.996,3.276,5.244,6.524,7.248,10.476c3.49,6.879,3.052,16.368,2.811,23.83
		c-1.783-9.122-3.844-18.042-10.213-25.173c-3.047-3.413-6.673-6.228-10.41-8.842c-3.601-2.521-6.102-6.706-8.192-10.478
		c-4.581-8.258-7.804-17.207-11.194-25.992c-1.645-4.267-3.027-8.68-4.418-13.035c-0.712-2.234-1.4-4.475-2.074-6.72
		c-0.814-2.716-1.551-3.233-3.656-4.917c-3.922-3.135-7.296-7.652-11.832-9.895c-1.851,19.981-26.141,33.239-44.428,28.622
		c8.099,5.966,9.304,16.111,6.671,25.339c-3.134,10.981,6.4,15.786,14.991,19.934c-2.892-0.925-5.804-1.926-8.818-2.356
		c-3.693-0.527,1.829,2.879,2.703,3.289c5.714,2.68,11.68,4.509,17.758,6.158c-7.755-0.76-16.629,1.514-23.091-4.098
		c-1.593-1.385-3.045-3.182-4.098-5.01c-1.129-1.959-1.319-4.244-2.895-5.822c-3.2-3.199-5.639-6.862-7.696-10.878
		c-4.068-7.946-6.34-17.966-5.15-26.882c0.23-1.729-3.534-2.002-5.083-2.518c-2.201-0.733-4.404-1.498-6.497-2.5
		c-2.893-1.383-5.915-4.168-9.035-4.659c-4.186-0.659-9.468-2.244-12.754-5.022c-3.815-3.227-9.099-4.533-13.009-8.066
		c-1.61-1.456-2.486-2.868-3.382-4.749c-1.016-2.132-2.905-3.564-3.968-5.529c-2.074-3.832,4.125-4.895,5.919-7.74"/>
	<path fill="#F38630" d="M84.817,120.857c5.294,3.037,9.097,8.92,14.777,11.193c5.959,2.384,12.528,1.893,18.818,2.646
		c14.832,1.781,27.191,9.093,37.631,19.529c-4.365,0.559-8.67,0.574-13.043,0.051c-3.525-0.423-8.605-2.154-9.532,2.322
		c-0.749,3.623,4.681,7.631,6.185,10.639c1.927,3.854,2.279,7.69,3.381,11.641c0.939,3.373,5.639,5.432,8,8.001
		c1.345,1.461,2.84,3.207,3.73,4.987c1.543,3.082-1.16,1.336-2.818,0.542c-8.205-3.927-16.65-7.371-24.694-11.639
		c-6.731-3.572-14.011-7.21-19.379-12.741c-5.432-5.596-9.591-11.944-13.351-18.748c-3.173-5.741-4.527-12.723-8.599-17.886
		c-1.081-1.372-2.317-2.513-3.544-3.74c-0.887-0.886-2.838-1.776-3.417-2.894C77.563,122.057,82.357,120.084,84.817,120.857"/>
	<path fill="#A02623" d="M154.159,193.516c-15.868-8.709-35.187-13.467-47.875-27.125c-5.99-6.447-10.804-14.328-14.323-22.375
		c-1.654-3.783-2.819-7.878-5.071-11.357c-0.991-1.533-2.343-3.111-3.73-4.287c-1.081-0.916-3.542-2.346-4.196-3.609
		c-1.411-2.729,3.888-5.102,6.243-3.668c3.268,1.988,5.913,4.564,8.783,7.05c5.798,5.021,11.804,5.679,19.225,6.032
		c16.832,0.803,31.061,8.285,42.83,20.051c-9.449-9.16-21.303-13.69-34.203-15.625c-1.568-0.236-6.584-1.729-7.948-0.572
		c-1.579,1.34,1.513,2.869,2.798,3.839c5.124,3.86,10.865,7.083,15.741,11.253c-4.931-2.603-9.663-5.453-14.351-8.469
		c-2.181-1.401-4.298-2.92-6.508-4.271c-1.458-0.891-6.108-3.205-2.987,0.1c7.721,8.178,16.481,15.652,25.471,22.397
		c-5.672-3.545-10.982-7.588-16.267-11.68c-2.522-1.952-5.026-3.944-7.605-5.818c-2.854-2.074-5.335-3.171-2.494,1.175
		c8.034,12.292,19.735,21.684,32.09,29.332c-8.252-4.615-15.867-9.864-23.2-15.825c-3.079-2.503-5.968-6.37-9.519-8.145
		c-1.973-0.985-0.191,2.074,0.13,2.636c1.058,1.844,2.37,3.567,3.668,5.249c10.884,14.081,27.122,24.669,42.516,33.278
		C153.64,193.227,153.9,193.371,154.159,193.516"/>
	<path fill="#602623" d="M154.159,193.516c-15.868-8.709-35.187-13.467-47.875-27.125c-5.99-6.447-10.804-14.328-14.323-22.375
		c-1.654-3.783-2.819-7.878-5.071-11.357c-0.991-1.533-2.343-3.111-3.73-4.287c-1.081-0.916-3.542-2.346-4.196-3.609
		c-1.411-2.729,3.888-5.102,6.243-3.668c3.268,1.988,5.913,4.564,8.783,7.05c5.798,5.021,11.804,5.679,19.225,6.032
		c16.832,0.803,31.061,8.285,42.83,20.051c-6.352-5.853-13.16-11.054-21.336-14.115c-7.409-2.773-15.023-3.316-22.831-3.316
		c-3.648,0-6.978,0.053-10.516-0.93c-5.75-1.598-0.868,4.697,0.694,6.719c4.835,6.258,10.417,12.042,16,17.627
		c-3.011-2.477-5.874-5.121-8.868-7.617c-0.944-0.787-7.894-6.678-8.109-5.392c-0.503,3.005,3.321,8.224,5.047,10.499
		c2.321,3.064,4.863,5.811,7.482,8.616C124.675,178.176,139.833,186.354,154.159,193.516"/>
	<path fill="#210000" d="M154.159,193.516c-15.868-8.709-35.187-13.467-47.875-27.125c-5.99-6.447-10.804-14.328-14.323-22.375
		c-1.654-3.783-2.819-7.878-5.071-11.357c-0.991-1.533-2.343-3.111-3.73-4.287c-1.081-0.916-3.542-2.346-4.196-3.609
		c-1.411-2.729,3.888-5.102,6.243-3.668c3.268,1.988,5.913,4.564,8.783,7.05c5.798,5.021,11.804,5.679,19.225,6.032
		c16.832,0.803,31.061,8.285,42.83,20.051c-6.229-5.826-12.832-10.832-20.67-14.318c-7.779-3.459-15.141-3.471-23.334-4.383
		c-8.424-0.938-14.497-1.173-21.145-7.155c-2.448-2.204-2.882-0.916-1.979,1.79c0.724,2.172,1.617,4.28,2.707,6.295
		c2.047,3.781,6.402,6.777,10.237,8.535c-2.922-1.23-7.438-2.885-5.53,2.08c1.223,3.182,2.907,6.245,4.749,9.107
		c3.717,5.775,8.351,11.394,13.985,15.384C127.154,180.123,140.644,187.469,154.159,193.516"/>
	<path fill="none" d="M84.817,120.857c5.294,3.037,9.097,8.92,14.777,11.193c5.959,2.384,12.528,1.893,18.818,2.646
		c14.832,1.781,27.191,9.093,37.631,19.529c-4.365,0.559-8.67,0.574-13.043,0.051c-3.525-0.423-8.605-2.154-9.532,2.322
		c-0.926,4.477,4.681,7.631,6.185,10.639c1.927,3.854,2.279,7.69,3.381,11.641c0.939,3.373,5.639,5.432,8,8.001
		c1.345,1.461,2.84,3.207,3.73,4.987c1.543,3.082-1.16,1.336-2.818,0.542c-8.205-3.927-16.65-7.371-24.694-11.639
		c-6.731-3.572-14.011-7.21-19.379-12.741c-5.432-5.596-9.591-11.944-13.351-18.748c-3.173-5.741-4.527-12.723-8.599-17.886
		c-1.081-1.372-2.317-2.513-3.544-3.74c-0.887-0.886-2.838-1.776-3.417-2.894C77.563,122.057,82.357,120.084,84.817,120.857"/>
	<path fill="#F38630" d="M47.674,119.23c1.168,11.979-8.271,17.54-15.941,24.805c-4.031,3.817-7.796,7.354-5.914,13.249
		c1.899,5.952,4.003,10.592,3.447,16.977c-0.836-5.745-4.9-10.303-6.675-15.838c-2.005-6.251-1.74-12.759-0.203-19.048
		c1.504-6.154,5.09-11.863,9.976-15.876C35.652,120.797,43.421,116.965,47.674,119.23"/>
	<path fill="#A02623" d="M25.168,165.092c-7.17-15.279-4.473-40.859,15.122-45.568c1.613-0.388,4.522-1.305,6.148-0.68
		c1.987,0.762,1.526,2.672,1.37,4.744c-0.32,4.264-2.872,7.957-5.588,11.092c-5.014,5.784-15.723,10.401-17.084,18.574
		c-0.556,3.338,2.053,7.496,3.089,10.602c1.177,3.527,1.361,6.727,1.041,10.408c0-4.068-0.792-7.715-2.244-11.514
		c-1.179-3.084-3.895-7.537-2.94-10.971c1.852-6.658,10.681-11.5,15.295-16.322c2.128-2.224,6.516-6.255,5.826-9.719
		c-0.229-1.15-2.71,2.168-3.067,2.614c-1.368,1.711-2.908,3.228-4.608,4.606c-5.923,4.799-12.59,9.949-14.506,17.758
		c1.052-5.16,3.89-9.631,7.545-13.334c1.835-1.861,3.844-3.476,5.854-5.14c1.259-1.043,5.448-3.641,5.659-5.398
		c0.282-2.345-3.265,0.308-4.358,0.976c-2.027,1.236-4.052,2.525-5.833,4.107c-4.012,3.568-7.096,7.77-8.347,13.065
		c1.636-7.188,5.452-13.474,11.583-17.669c1.393-0.954,8.996-4.238,8.354-6.172c-0.871-2.614-8.067,1.939-9.144,2.676
		C20.786,133.102,19.579,150.77,25.168,165.092"/>
	<path fill="#602623" d="M25.754,131.203c4.156-6.58,11.359-12.97,19.773-12.424c3.812,0.246,2.587,5.67,1.46,8.373
		c-1.639,3.936-4.132,7.026-7.185,9.97c1.547-1.733,9.484-12.286,5.269-13.465c-1.913-0.534-5.946,2.311-7.481,3.253
		c-2.606,1.6-5.171,3.438-7.285,5.659c2.766-2.997,5.817-5.224,9.269-7.351c0.961-0.594,8.593-4.566,4-5.334
		C36.827,118.758,29.121,126.267,25.754,131.203"/>
	<path fill="none" d="M47.674,119.23c1.168,11.979-11.911,20.988-15.941,24.805c-4.031,3.817-7.796,7.354-5.914,13.249
		c1.899,5.952,4.003,10.592,3.447,16.977c-0.836-5.745-4.9-10.303-6.675-15.838c-2.005-6.251-1.707-12.894-0.203-19.048
		s5.09-11.863,9.976-15.876C35.652,120.797,43.421,116.965,47.674,119.23"/>
	<path fill="#FF4E00" d="M182.97,143.104c2.341,10.448,3.193,21.271-2.275,30.897c0-10.265-4.605-20.634-8.9-29.783
		c-4.726-10.066-10.052-19.756-16.598-28.759c11.924,15.179,22.684,34.89,26.603,53.924
		C185.603,161.777,184.986,151.229,182.97,143.104"/>
	<path fill="#F38630" d="M74.8,124.955c0.473,6.154,0.06,12.197,0.26,18.344c0.197,6.055,1.567,12.035,3.244,17.826
		c2.816,9.733,10.699,22.89,21.083,26.016c-0.49-2.225-2.71-4.358-3.441-6.691c-1.156-3.688-2.075-7.336-2.624-11.168
		c-1.035-7.242-1.649-14.838-0.083-22.047c1.377-6.331-4.387-11.721-9.606-14.594c-2.816-1.551-4.087-3.939-4.867-6.969
		c-0.398-1.55-0.472-3.367-2.276-3.969C74.523,121.049,74.478,123.694,74.8,124.955"/>
	<path fill="none" d="M74.8,124.955c0.473,6.154,0.06,12.197,0.26,18.344c0.197,6.055,1.567,12.035,3.244,17.826
		c2.816,9.733,10.699,22.89,21.083,26.016c-0.49-2.225-2.71-4.358-3.441-6.691c-1.156-3.688-2.075-7.336-2.624-11.168
		c-1.035-7.242-1.649-14.838-0.083-22.047c1.377-6.331-4.387-11.721-9.606-14.594c-2.816-1.551-4.087-3.939-4.867-6.969
		c-0.398-1.55-0.472-3.367-2.276-3.969C74.523,121.049,74.478,123.694,74.8,124.955"/>
	<path fill="#007F7F" d="M97.564,184.017c0.634,1.005,1.577,2.019,1.82,3.122c-7.785-2.344-14.762-11.462-18.096-18.465
		c-3.679-7.73-6.402-17.283-6.221-25.914c0.104-4.949,0.336-9.908-0.044-14.846c-0.102-1.32-1.132-5.412,0.357-6.213
		c2.25-1.207,3.063,2.725,3.383,3.969c2.082,8.092,11.893,9.653,14.831,17.725c0.193,0.531,0.218,1.037,0.13,1.594
		c0.224-3.784-5.194-5.843-7.805-7.545c1.453,5.082,3.177,9.957,5.659,14.635c-3.135-4.088-5.158-8.459-6.766-13.334
		c1.176,8.229,2.921,15.709,6.245,23.352c-2.008-4.099-3.925-8.25-5.464-12.555c-0.699-1.957-1.372-3.974-1.889-5.988
		c-0.511-1.994-0.589-4.982-1.818-6.631c-2.734,3.919,0.32,11.816,1.626,15.807c1.89,5.781,4.133,11.445,7.286,16.652
		c-6.615-8.387-10.833-20.637-11.969-31.156c0.251,9.419,0.635,18.438,3.761,27.423c1.474,4.233,4.205,8.204,7.004,11.669
		c1.412,1.748,2.853,3.496,4.456,5.074C94.699,183.027,97.56,186.1,97.564,184.017"/>
	<path fill="#015B5B" d="M98.345,186.752c-16.307-10.037-23.607-28.193-23.212-46.961c0.104-4.93,0.057-9.752-0.322-14.668
		c-0.127-1.658-0.379-4.193,2.069-3.288c1.886,0.698,1.789,3.804,2.313,5.378c1.414,4.246,4.875,5.182,8.03,7.827
		c2.345,1.966,6.912,6.256,6.537,9.659c-0.01,0.098-0.021,0.195-0.032,0.293c-0.401-3.703-4.154-6.334-7.025-8.195
		c-3.653-2.367-6.637-2.688-6.505,2.536c-0.653-1.665-1.604-4.529-2.667-1.951c-0.805,1.951-0.231,5.696-0.26,7.806
		c-0.081,5.867,0.926,11.745,3.049,17.227C84.104,172.191,89.318,180.984,98.345,186.752"/>
	<path fill="#063838" d="M75.581,149.087c-0.718-7.991-0.151-15.964-0.767-23.967c-0.418-5.437,3.005-3.141,3.955,0.55
		c0.792,3.081,2.177,5.762,5.204,7.154c-2.33-0.219-4.828-2.365-5.919-4.357c0.504,2.764,0.87,5.495,1.886,8.131
		c-1.155-1.979-2.695-3.986-3.253-6.244C76.156,136.596,75.702,142.822,75.581,149.087"/>
	<path fill="#F38630" d="M7.865,84.625c5.195-7.354,9.963-11.22,18.896-13.236c8.801-1.987,13.156-9.118,20.469-13.505
		c3.334-2,6.758-3.713,10.591-4.481c1.818-0.364,2.41,0.258,3.206-1.622c0.831-1.962,1.736-3.9,2.713-5.793
		C67.868,38,73,30.772,79.152,24.221c14.442-15.38,34.15-22.678,54.904-23.637c-1.514,1.978-4.311,4.74-4.424,7.416
		c-0.105,2.492,1.717,3.896,0.508,6.485c-2.456,5.261-5.132,8.991-0.377,13.745c-1.864,0.866-3.969,1.342-5.984,1.626
		c2.631,0.911,7.947,2.422,9.951,4.423c1.264,1.262,0.111,2.052,0.91,3.902c0.8,1.855,3.468,3.095,4.813,4.554
		c2.809,3.044,4.811,8.145,2.918,12.101c-2.329,4.869-1.992,7.784-0.706,13.008c-7.479-3.989-17.506-7.132-26.02-4.879
		c7.219,5.293,14.594,8.897,23.418,10.568c8.717,1.649,17.23,3.485,25.628,6.409c16.331,5.687,32.806,14.992,42.442,29.846
		c7.465,11.508,12.133,25.906,12.133,39.712c0,7.165-0.756,14.271-3.34,21.019c-2.642,6.897-5.941,13.038-2.711,20.264
		c-4.936-4.23-4.194-11.264-3.479-17.275c0.374-3.135,0.771-6.274,1.41-9.369c0.43-2.088,2.478-6.705,0.768-8.416
		c-1.914-1.918-4.688-2.662-6.568-4.684c-1.986-2.132-1.999-4.816-3.416-7.09c-1.098-1.761-5.652-1.96-7.48-2.568
		c-2.453-0.82-5.088-1.727-7.252-3.156c0.859,3.608-0.846,3.639-3.644,2.213c-3.06-1.561-5.97-3.598-8.847-5.465
		c-5.535-3.595-10.109-7.758-14.375-12.75v0.781c-2.537-0.615-5.177-4.897-6.505-7.025c1.364,3.377,3.259,7.033,3.417,10.745
		c0.174,4.072-1.081,7.715,0.007,11.733c0.931,3.438,3.669,6.373,4.162,9.949c0.569,4.121-1.298,6.521-2.417,10.256
		c-1.023,3.412,0.307,6.623,2.66,9.198c2.996,3.276,5.244,6.524,7.248,10.476c3.49,6.879,3.053,16.368,2.811,23.83
		c-1.783-9.122-3.843-18.042-10.212-25.173c-3.048-3.413-6.673-6.228-10.409-8.842c-3.603-2.521-6.103-6.706-8.194-10.478
		c-4.581-8.258-7.804-17.207-11.192-25.992c-1.646-4.267-3.029-8.68-4.419-13.035c-0.713-2.234-1.401-4.475-2.075-6.72
		c-0.813-2.716-1.551-3.233-3.656-4.917c-3.922-3.135-7.296-7.652-11.831-9.895c-1.852,19.981-26.142,33.239-44.428,28.622
		c8.099,5.966,9.305,16.111,6.671,25.339c-3.135,10.981,6.401,15.786,14.99,19.934c-2.891-0.925-5.804-1.926-8.818-2.356
		c-3.693-0.527,1.828,2.879,2.703,3.289c5.713,2.68,11.68,4.509,17.757,6.158c-7.754-0.76-16.629,1.514-23.091-4.098
		c-1.593-1.385-3.043-3.182-4.098-5.01c-1.129-1.959-1.318-4.244-2.895-5.822c-3.2-3.199-5.64-6.862-7.695-10.878
		c-4.069-7.946-6.341-17.966-5.152-26.882c0.23-1.729-3.534-2.002-5.083-2.518c-2.2-0.733-4.404-1.498-6.497-2.5
		c-2.892-1.383-5.915-4.168-9.034-4.659c-4.187-0.659-9.468-2.244-12.755-5.022c-3.814-3.227-9.1-4.533-13.009-8.066
		c-1.611-1.456-2.486-2.868-3.382-4.749c-1.016-2.132-2.904-3.564-3.968-5.529C-0.129,88.533,6.069,87.47,7.865,84.625"/>
	<path fill="#FF4E00" d="M141.666,67.844c-1.259-5.108-1.545-7.826,0.52-12.62c1.656-3.845,0.713-8.755-2.196-11.907
		c-1.593-1.728-3.567-3.02-5.081-4.814c-1.204-1.431,0.477-3.397-0.982-4.126c-3.27-1.63-6.699-3.326-10.148-4.521
		c2.017-0.285,4.119-0.76,5.984-1.625c-4.754-4.754-2.078-8.484,0.378-13.746c1.208-2.587-0.614-3.992-0.509-6.484
		c0.113-2.675,2.912-5.438,4.424-7.416c-6.092,0.097-10.318,4.432-14.636,8.131c4.513-1.24,4.223,2.199,2.276,5.009
		c-1.787,2.581-4.244,4.868-7.154,6.114c3.368,0.655,8.983,1.809,7.61,6.505c-1.085,3.712-5.372,6.277-8.586,7.871
		c6.827-0.539,16.985-0.556,21.042,6.212c4.731,7.892-6.338,12.476-12.456,13.303c1.353,0.283,6.861,0.961,6.181,3.187
		c-0.609,1.986-7.147,1.92-8.652,1.952c4.101,1.054,8.171,2.161,12.164,3.577C134.873,63.52,139.827,64.992,141.666,67.844"/>
	<g>
		<path fill="#FFA600" d="M129.175,4.098c-3.807,1.845-2.746,6.205-4.292,9.497c-0.804,1.71-2.069,3.09-2.211,5.074
			c-0.051,0.701,0.394,5.224,1.301,5.464c0.517,0.137,2.447-8.095,3.095-9.198c0.928-1.577,1.822-2.975,1.848-4.852
			C128.945,7.975,127.881,6.1,129.175,4.098"/>
		<path fill="#FFA600" d="M138.417,44.233c2.781,3.388,3.684,6.48,2.199,10.72c-1.236,3.53-1.41,7.052-0.313,10.68
			c-3.959-2.826-11.331-3.784-10.277-10.017C131.072,49.425,139.321,51.254,138.417,44.233"/>
	</g>
	<path fill="#146666" d="M117.533,62.119c-5.166,0.166-7.591-6.116-10.839-9.132c-3.876-3.6-8.45-5.875-13.619-7
		c-11.042-2.403-23.347,1.207-32.653,7.219c5.917-14.285,15.154-27.423,27.505-36.85c13.515-10.314,29.294-14.995,46.128-15.772
		c-8.675,0.704-17.442,2.103-25.629,5.139c-7.86,2.915-14.588,7.644-21.054,12.898c-6.74,5.476-12.999,12.625-17.551,20.02
		c-1.376,2.235-6.051,10.816,0.329,8.083c3.952-1.693,6.32-6.174,8.926-9.409c9.647-11.977,21.686-23.046,36.831-27.104
		c-8.818,2.469-16.196,7.344-23.008,13.382c-3.394,3.008-6.632,6.188-9.646,9.579c-1.873,2.109-8.421,8.153-7.154,11.319
		c1.145,2.861,7.392-5.182,8.326-6.115c3.2-3.199,6.517-6.3,10.018-9.171c7.209-5.914,14.965-10.995,23.936-13.724
		c-14.423,5.278-26.147,15.953-36.603,26.9c-3.837,4.018,2.726,1.898,4.509,0.271c2.861-2.614,5.588-5.33,8.608-7.77
		c6.05-4.886,12.522-9.445,19.908-12.051c-5.549,2.5-10.582,5.891-15.474,9.478c-1.217,0.892-14.033,11.447-11.911,12.507
		c2.856,1.428,12.393-7.343,14.827-8.933c4.917-3.213,10.774-6.712,16.657-7.653c-5.344,1.486-10.386,4.445-15.026,7.416
		c-2.199,1.407-4.368,2.899-6.439,4.489c-0.851,0.652-6.564,4.815-3.838,5.204c4.76,0.678,9.618-5.278,13.389-7.539
		c5.07-3.041,10.505-4.87,16.273-6.056c-4.974,1.348-9.761,3.178-14.295,5.635c-1.528,0.828-12.102,7.157-9.316,9.585
		c2.376,2.072,9.69-4.252,11.736-5.324c4.965-2.599,10.234-4.765,15.908-5.018c-5.193,0.624-10.241,2.619-14.769,5.179
		c-1.364,0.772-11.338,6.457-7.542,8.155c1.623,0.726,4.866-1.793,6.309-2.406c2.33-0.99,4.766-1.827,7.22-2.44
		c4.903-1.226,9.727-1.9,14.766-1.138c-4.698-0.407-9.422,0.024-13.952,1.366c-1.182,0.351-14.135,5.267-11.448,7.188
		c3.065,2.192,10.231-1.65,13.497-2.309c4.969-1.001,9.787-1.063,14.57,0.781c-4.346-1.021-8.541-1.082-12.945-0.505
		c-2.333,0.305-11.607,1.979-12.423,4.408c-0.482,1.437,8.402-0.427,9.302-0.521c4.951-0.512,10.238-0.521,15.025,0.976
		c-4.556-0.736-9.197-0.935-13.789-0.456c-2.124,0.222-4.432,0.455-6.439,1.236c-1.887,0.734-2.9,1.183-0.846,1.821
		c2.969,0.922,7.062,0.669,10.181,1.167c4.378,0.701,9.099,0.979,13.301,2.475c-4.962-1.029-10.019-1.792-15.073-2.18
		c-2.342-0.18-4.66-0.422-7.01-0.422c-2.438,0-0.855,1.258,0.553,1.886c3.574,1.595,9.225,0.834,13.115,1.39
		c4.572,0.654,9.182,2.696,12.773,5.57C134.842,63.26,125.664,61.477,117.533,62.119"/>
	<path fill="#FF4E00" d="M187.199,138.225c2.271,1.501,5.133,2.545,7.739,3.318c1.769,0.524,6.694,0.825,7.226,2.951
		c0.754,3.01,1.992,5.727,4.482,7.683c1.846,1.45,5.504,2.472,6.049,5.042c2.281-8.736,4.363-17.697,3.406-26.771
		c-0.92-8.728-6.627-17.969-11.959-24.684C193.195,91.98,177.082,83.9,160.634,78.615c-1.074-0.345-2.148-0.688-3.229-1.015
		c13.082,4.463,25.68,9.81,36.268,18.885c10.54,9.034,16.841,19.632,20.064,33.087c-5.207-9.367-12.156-19.857-21.141-26.019
		c7.006,6.159,13.937,15.843,17.626,24.393c-9.024-13.648-21.863-26.967-36.88-33.824c15.525,8.47,30.811,24.423,36.621,41.37
		c-3.701-7.63-9.946-13.895-16.068-19.645c-6.1-5.73-12.785-11.172-19.969-15.481c8.16,5.532,15.955,12.331,22.506,19.709
		c-6.16-6.437-14.354-10.885-21.725-15.741c12.195,9.238,25.433,21.879,30.637,36.621c-10.473-16.229-25.637-28.205-41.76-38.508
		c14.56,10.852,28.563,22.118,37.987,37.922c-6.764-10.277-17.547-17.977-27.125-25.433c3.954,4.032,8.118,7.858,12.112,11.853
		c3.796,3.796,8.674,7.619,11.5,12.216c-6.246-5.614-13.367-10.22-19.514-15.937c5.336,6.046,10.938,11.539,17.043,16.781
		c-13.109-7.795-24.346-18.146-35.516-28.426c7.863,8.939,15.234,18.293,24.652,25.693c-9.811-7.766-19.094-16.027-27.639-25.18
		c-4.185-4.483-8.182-9.136-12.105-13.848c-3.479-4.178-7.379-10.147-12.555-12.359c9.436,8.626,15.199,20.511,23.867,29.871
		c4.688,5.063,9.402,9.883,14.733,14.271C175.394,133.471,181.048,138.923,187.199,138.225"/>
	<g>
		<g>
			<path fill="#FF4E00" d="M159.554,143.627c2.56,5.26,2.131,8.557-0.068,13.785c-2.317,5.504,1.033,8.594,4.209,12.697
				c7.388,9.541,8.404,20.289,8.023,32.059c-1.783-9.121-3.844-18.041-10.213-25.172c-3.047-3.412-6.673-6.229-10.409-8.842
				c-3.603-2.521-6.103-6.707-8.193-10.478c-4.581-8.259-7.804-17.208-11.192-25.993c-1.646-4.266-3.029-8.68-4.419-13.035
				c-0.712-2.234-1.401-4.475-2.075-6.72c-0.814-2.716-1.551-3.233-3.656-4.917c-2.512-2.008-4.818-4.266-7.181-6.447
				c-0.998-0.921-4.09-2.378-4.651-3.447c-0.593-1.131-0.16-5.15-0.404-6.642c-1.411-8.632-8.823-13.25-11.509-21.146
				c-1.328-3.901-3.141-10.299,3.153-8.026c3.491,1.261,6.923,2.909,10.161,4.719c7.397,4.136,14.339,8.907,21.301,13.726
				c-5.783-3.394-11.64-6.925-17.827-9.543c-0.65-0.274-6.835-2.59-5.785-1.189c1.834,2.444,4.568,4.438,6.7,6.642
				c9.548,9.879,18.354,20.354,26.149,31.671c-5.396-6.939-10.959-14.227-17.889-19.71c7.819,9.624,13.744,20.423,19.514,31.353
				c-4.088-7.666-9.185-16.359-15.156-22.701c4.353,9.476,6.098,19.64,9.757,29.336c3.588,9.51,9.505,17.486,15.416,25.629
				c-3.716-7.558-7.946-14.959-11.122-22.766c2.434,4.518,5.001,9.03,7.643,13.432c2.549,4.246,4.614,9.145,7.772,12.977
				c0.849-2.18-1.259-6.468-2.146-8.586c-1.234-2.945-2.799-5.768-4.357-8.553c-3.037-5.427-6.106-10.78-9.434-16.035
				c3.609,4.436,6.521,9.469,9.369,14.413c1.398,2.431,2.771,4.878,4.162,7.313c1.134,1.984,2.287,5.523,4.098,6.83
				c-0.337-4.93-3.367-10-5.645-14.267c-2.654-4.974-4.859-10.585-8.211-15.136C150.455,128.235,155.089,135.908,159.554,143.627"/>
			<path fill="#FF4E00" d="M143.291,109.214c4.947,6.351,9.918,12.396,13.271,19.774
				C152.582,122.127,147.605,115.865,143.291,109.214"/>
		</g>
	</g>
	<path fill="#054C4C" d="M109.73,97.113c3.488,1.725,6.066,4.926,8.969,7.44c1.264,1.094,2.473,2.268,3.854,3.218
		c2.298,1.581,2.527,3.698,3.314,6.321c2.687,8.956,5.913,17.711,9.233,26.444c3.191,8.393,6.926,17.747,12.844,24.616
		c2.895,3.36,6.943,5.43,10.18,8.443c3.424,3.188,6.506,6.775,8.585,11.006c2.708,5.51,3.841,11.59,5.009,17.563
		c0.373-11.492-0.502-22.346-7.737-31.689c-2.923-3.773-6.95-7.233-4.747-12.473c2.296-5.453,3.016-8.842,0.32-14.38
		c1.423,3.907,3.076,8.757-0.324,12.229c-2.203,2.25-8.291,1.893-3.902,6.081c5.364,5.12,11.985,11.027,13.725,18.571
		c-2.503-8.002-10.422-12.839-16.913-17.238c-6.441-4.364-10.033-11.863-12.603-18.963c-6.365-17.592-6.032-37.644-15.15-54.268
		c-2.494-4.549-5.266-8.41-9.088-11.955c-2.57-2.385-7.955-7.346-11.813-6.594c-5.307,1.034,1.847,7.827,2.977,9.759
		c2.899,4.954,4.102,10.125,3.268,15.87"/>
	<path fill="#007F7F" d="M171.72,202.165c-1.783-9.121-3.844-18.042-10.213-25.173c-3.047-3.412-6.672-6.227-10.408-8.842
		c-3.604-2.521-6.104-6.707-8.195-10.477c-4.58-8.259-7.803-17.208-11.191-25.994c-1.646-4.266-3.03-8.68-4.418-13.035
		c-0.713-2.232-1.402-4.474-2.076-6.719c-0.813-2.715-1.551-3.234-3.656-4.917c-2.668-2.132-5.025-4.603-7.604-6.837
		c-1.518-1.316-4.302-2.385-4.083-4.358c0.247-2.224,0.083-4.453-0.225-6.66c-0.587-4.216-2.98-8.007-5.677-11.196
		c-3.19-3.771,0.812-4.882,4.065-3.676c7.869,2.917,13.396,12.415,16.932,19.487c4.061,8.122,6.193,16.956,8.047,25.785
		c-2.425-8.803-5.02-17.989-9.985-25.752c-1.605-2.511-6.689-8.58-3.957-1.752c1.769,4.421,3.813,8.722,5.616,13.129
		c6.507,15.906,9.742,33.143,17.725,48.492c2.223,4.273,5.156,7.796,8.865,10.867c3.715,3.076,8.495,5.445,11.62,9.139
		C169.446,181.412,171.137,192.342,171.72,202.165"/>
	<g>
		<path fill="#FFA600" d="M109.73,95.293c-1.567,16.912-20.393,29.842-36.492,29.662c-7.945-0.09-16.99-1.828-24.457-4.488
			c-3.867-1.378-7.274-3.219-10.797-5.27c-2.766-1.609-6.109-1.798-9.151-2.979c-2.536-0.985-6.135-2.095-7.567-4.599
			c-0.586-1.025-3.833-1.727-4.976-2.275c-1.718-0.828-3.423-1.787-4.976-2.896c-2.498-1.783-4.128-3.662-5.398-6.374
			c-0.471-1.006-5.512-7.302-3.773-7.741c1.458-0.368,3.787,4.625,5.01,5.236c2.344,1.172,6.455-0.17,8.65-1.268
			c0.871-0.436,1.762-0.874,2.667-1.235c1.464-0.585,2.833,0.633,3.903,0.259c1.657-0.578,1.553-3.691,0.968-4.909
			c-1.008-2.101-2.412-2.944-4.416-4.002c4.577,0.07,10.267,5.174,14.635,3.382c-1.296,5.001-1.691,9.885-0.259,14.896
			c0.824-5.129,1.93-15.972,9.237-15.416c-1.375-5.488-5.77-13.812-11.383-16.002c3.797,0.697,7.155,5.073,9.654,7.719
			c2.254,2.387,3.746,6.829,7.258,5.485c3.613-1.381,6.754-4.088,10.278-5.725c3.773-1.751,8.051-2.801,12.218-2.937
			c9.742-0.316,17.187,4.381,22.579,12.328c5.183,7.638,6.684,14.861,2.799,23.458c7.005-5.496,14.341-17.682,11.253-26.93
			C109.322,86.456,110.109,90.981,109.73,95.293"/>
		<path fill="#FFA600" d="M109.73,97.113c-1.579,17.028-20.381,29.681-36.492,29.663c-4.06-0.006-7.911-1.197-11.915-1.596
			c-4.365-0.437-8.398-1.416-12.542-2.894c-3.858-1.374-7.304-3.175-10.797-5.269c-2.756-1.65-6.084-1.787-9.151-2.98
			c-2.536-0.986-6.135-2.094-7.567-4.598c-0.585-1.025-3.834-1.727-4.976-2.276c-1.717-0.827-3.424-1.784-4.976-2.896
			c-2.488-1.779-4.123-3.698-5.398-6.374c-0.471-0.988-5.542-7.353-3.773-7.806c1.369-0.351,3.763,4.593,4.619,5.269
			c2.442,1.927,6.687,1.501,9.301,0.194c1.553-0.775,3.074-1.424,4.754-1.867c1.868-0.492,3.1,1.14,4.153-1.098
			c1.947-4.134-3.145-6.966-6.044-8.353c4.281,0.633,8.621,6.8,13.009,5.269c-2.064,5.295-1.355,11.781,2.212,16.197
			c0.812-5.142,2.327-18.163,9.756-17.823c-1.392-5.777-6.898-14.607-12.749-16.782c3.583,0.771,6.633,4.941,8.889,7.574
			c1.062,1.238,5.32,8.326,6.852,8.134c3.707-0.465,7.37-3.661,10.668-5.301c3.96-1.968,8.091-2.472,12.465-2.472
			c8.898,0,16.13,4.186,20.644,11.807c4.41,7.445,6.061,16.428,2.017,24.359c11.227-6.005,18.214-17.811,14.506-30.701
			C109.321,88.276,110.109,92.801,109.73,97.113"/>
	</g>
	<path fill="#FF4E00" d="M65.3,125.736c-3.911-0.951-7.908-0.865-11.827-1.941c-4.022-1.105-8.347-2.531-11.953-4.656
		c-3.561-2.096-6.25-3.43-6.661-7.974c-0.437-4.813,0.774-9.855,2.074-14.445c2.4-8.482,14.896-10.963,22.523-12.35
		c7.863-1.431,17.826-2.029,23.946,4.383c6.24,6.539,6.901,17.382,4.032,25.729C83.953,124.611,74.962,126.13,65.3,125.736"/>
	<path fill="#F38630" d="M80.525,105.438c-0.519,9.817-3.349,17.608-14.291,18.573c-8.18,0.722-17.257-1.459-24.544-5.174
		c-3.359-1.713-5.532-2.92-6.261-6.773c-0.764-4.033,0.637-9.557,2.094-13.304c2.708-6.962,15.38-9.155,22.087-9.959
		C70.959,87.442,80.21,93.551,80.525,105.438"/>
	<path fill="none" d="M56.323,122.289c-5.868-1.68-14.882-1.291-19.253-6.569c-2.527-3.052-0.888-9.731,0.325-13.075
		c1.468-4.044,4.99-5.195,8.847-6.439c7.263-2.342,17.241-4.557,23.026,2.081c4.566,5.241,4.194,17.981-1.978,21.977
		C64.019,122.381,60.102,122.461,56.323,122.289"/>
	<path fill="#196868" d="M109.73,97.113c-1.218,13.137-13.07,23.475-24.825,27.674c-5.602,2.002-12.121,2.693-17.957,1.331
		c-6.114-1.427-12.726-1.444-18.428-4.287c11.783,1.685,25.133,5.33,36.686,0.911C95.151,118.938,109.046,108.896,109.73,97.113"/>
	<path fill="#FF4E00" d="M23.021,85.992c3.617,2.713,5.836,5.6,6.81,10.085c0.828,3.813,1.502,6.738,3.271,10.274
		c1.614,3.227,1.398,7.664-2.894,4.326c-2.583-2.009-4.521-4.42-7.643-5.691c-3.687-1.502-7.397-2.132-10.343-5.074
		c-2.364-2.361,0.752-3.069,2.796-3.837c3.182-1.196,5.033-0.777,8.131-0.26c1.94,0.324,3.15-2.915,2.876-4.447
		C25.615,89.058,24.569,87.712,23.021,85.992"/>
	<path fill="#094C4C" d="M1.947,92.369c2.446,2.448,3.375,4.975,5.074,7.806c2.053,3.422,6.64,5.823,10.147,7.415
		c6.784,3.081,12.192,8.21,20.36,8.392c1.743,0.039,3.955-0.049,5.593-0.715c1.319-0.537,2.287-1.172,0.098-1.172
		c-4.046,0-8.157,0.354-12.001-1.17c-3.941-1.563-6.714-4.75-10.219-6.992c-1.754-1.123-3.548-0.881-5.458-1.334
		c-2.058-0.488-3.897-1.771-5.431-3.188c-1.7-1.571-2.076-3.866-3.7-5.488C5.053,94.566,3.67,93.249,1.947,92.369"/>
	<path fill="#F38630" d="M79.351,176.472c-4.658-2.554-7.305-6.022-9.433-10.798c-1.798-4.039-5.882-7.111-8.013-11.271
		c-4.667-9.114-7.675-19.659-6.103-29.97c5.229,0.756,11.048,0.371,14.036,5.602c3.158,5.529,3.8,11.151,3.072,17.426
		c0-5.689-1.61-13.299-6.83-16.588c4.542,7.89,3.577,15.029,3.577,23.701C69.658,163.314,72.861,170.745,79.351,176.472"/>
	<path fill="none" d="M79.351,176.472c-4.658-2.554-7.305-6.022-9.433-10.798c-1.798-4.039-5.882-7.111-8.013-11.271
		c-4.667-9.114-7.675-19.659-6.103-29.97c5.229,0.756,11.048,0.371,14.036,5.602c3.158,5.529,3.8,11.151,3.072,17.426
		c0-5.689-1.61-13.299-6.83-16.588c4.542,7.89,3.577,15.029,3.577,23.701C69.658,163.314,72.861,170.745,79.351,176.472"/>
	<g>
		<path fill="#007F7F" d="M65.3,125.736c7.154,5.27,8.592,13.273,7.612,21.726c1.585-6.923-1.645-16.866-8.977-19.254
			c3.099,4.87,2.371,9.444,2.134,14.946c-0.241,5.551,0.241,10.536,3.005,15.43c-3.096-5.273-4.026-10.664-3.759-16.768
			c0.24-5.504,0.851-10.146-3.655-14.129c-0.957,8.612,0.394,17.992,3.642,26.019c-3.32-7.636-5.468-16.858-4.878-25.237
			c-2.436,8.283-0.877,17.332,2.992,24.912c-4.534-7.672-5.759-16.316-4.098-25.043c-2.859,8.107-1.386,16.043,1.626,23.872
			c-3.972-8.979-5.507-17.97-5.139-27.775C58.969,124.869,62.135,125.302,65.3,125.736"/>
		<path fill="#146060" d="M56.91,121.314c-0.336,1.723-0.68,3.42-0.764,5.175c-0.113,2.374,1.93,1.233,3.235,0.81
			c3.498-1.139,4.468,0.163,7.773,1.365c3.435,1.25-3.266-4.619-4.037-5.273C61.281,121.832,59.323,119.556,56.91,121.314"/>
		<path fill="#A02623" d="M68.553,138.747c3.388,11.573-2.772,27.993,8.912,36.622C66.121,165.646,69.865,151.77,68.553,138.747"/>
		<g>
			<path fill="#602623" d="M71.225,159.497c2.536,5.214,8.237,8.834,13.595,10.603C80.006,168.745,71.721,165.411,71.225,159.497"/>
			<path fill="#602623" d="M73.826,168.992c4.292,5.672,12.031,8.043,18.863,8.391C86.483,177.49,76.647,175.453,73.826,168.992"/>
		</g>
		<path fill="#0D6363" d="M212.698,157.219c-0.407-3.771-7.393-4.858-9.042-8.586c-0.743-1.679-0.553-3.793-2.049-5.073
			c-1.842-1.577-5.291-1.597-7.561-2.261c-11.438-3.35-18.322-12.372-25.842-20.961c7.675,7.674,14.982,16.029,25.609,19.467
			c2.355,0.763,4.857,0.921,7.197,1.702c3.236,1.08,2.336,4.005,4.01,6.085c1.664,2.068,5.506,1.346,7.352,3.254
			C214.008,152.536,213.468,155.145,212.698,157.219"/>
		<path fill="#FFFFFF" d="M17.883,95.492c5.618,0.034,5.618-8.716,0-8.717C12.265,86.775,12.265,95.526,17.883,95.492"/>
	</g>
	<path fill="none" d="M17.883,95.492c5.618,0.034,5.618-8.716,0-8.717C12.265,86.775,12.265,95.526,17.883,95.492"/>
	<path fill="#602623" d="M22.241,91.13c0.037,5.618-8.755,5.618-8.716,0c0.926,3.439,3.972,4.259,4.487,0.13
		C19.111,92.245,21.891,93.384,22.241,91.13"/>
	<g>
		<path fill="none" d="M22.241,91.13c0.037,5.618-8.755,5.618-8.716,0c0.926,3.439,3.972,4.259,4.487,0.13
			C19.111,92.245,21.891,93.384,22.241,91.13"/>
		<path fill="none" d="M13.524,91.13c-0.039,5.618,8.753,5.618,8.716,0"/>
	</g>
	<g>
		<path fill="#210000" d="M17.948,93.408c2.716-0.188,2.767-4.382,0-4.423C15.103,88.943,15.147,93.24,17.948,93.408"/>
		<path fill="#146868" d="M3.312,88.529c1.638,3.271,7.682,11.437,11.903,9.236C9.464,97.442,8.149,89.177,3.312,88.529"/>
		<g>
			<path fill="#FFFFFF" d="M15.932,89.31c0.721,0.419,1.273,1.047,1.561,1.821C17.951,89.937,17.206,88.919,15.932,89.31"/>
			<path fill="#FFFFFF" d="M26.014,89.245c1.367,3.243,0.812,6.196-2.021,8.285c-2.595,1.913-1.884,4.861,0.581,6.555
				c3.258,2.241,4.544-3.836,4.563-5.864C29.167,94.868,27.783,91.979,26.014,89.245"/>
			<path fill="#FFFFFF" d="M38.762,68.366c3.977-3.834,14.699-15.145,21.011-11.09c2.943,1.891-7.106,4.977-8.521,5.464
				C46.909,64.233,42.559,65.714,38.762,68.366"/>
			<path fill="#FFFFFF" d="M6.37,88.141c2.977-1.682,4.782-4.137,6.569-6.96c1.146-1.812,4.189-6.547,6.895-6.114
				c2.175,0.348-3.963,5.833-5.09,6.866C12.29,84.183,9.516,86.91,6.37,88.141"/>
			<path fill="#FFFFFF" d="M69.593,52.104c7.994-3.135,23.332-7.873,30.637-0.976c-4.853,0.039-9.697-1.888-14.633-1.674
				C80.019,49.695,75,50.771,69.593,52.104"/>
			<path fill="#FFFFFF" d="M74.8,64.009c6.561,1.2,12.297,4.916,17.528,8.883c2.305,1.748,4.597,3.8,6.54,5.948
				c0.541,0.598,5.146,7.24,3.318,7.058c-2.331-0.234-4.777-4.799-5.982-6.511c-1.652-2.345-3.356-4.513-5.532-6.401
				C85.976,68.911,80.428,66.469,74.8,64.009"/>
			<path fill="#FFFFFF" d="M139.521,75.976c9.951,2.67,20.098,3.713,29.678,7.704c9.064,3.777,18.363,8.746,25.287,15.843
				C178.004,86.988,159.655,80.219,139.521,75.976"/>
		</g>
		<path fill="#155B5B" d="M37.917,76.627c3.396,4.075,6.5,8.191,9.048,12.86c2.203,4.036,6.256,11.488,5.262,16.216
			c-1.8-1.209-2.326-4.606-2.927-6.57c-0.862-2.816-1.678-5.683-2.9-8.372C44.133,85.774,41.422,80.867,37.917,76.627"/>
		<g>
			<path fill="#FFFFFF" d="M69.463,84.889c-0.257,3.349,2.421,0.441,1.724-1.886C70.446,80.531,69.396,83.869,69.463,84.889"/>
			<path fill="#FFFFFF" d="M65.042,84.759c0.027,2.839,2.056,1.317,1.755-0.846C66.354,80.729,64.536,82.166,65.042,84.759"/>
			<path fill="#FFFFFF" d="M61.202,84.889c0.048,2.848,2.084,1.317,1.821-0.846C62.64,80.895,60.6,82.342,61.202,84.889"/>
			<path fill="#FFFFFF" d="M57.368,85.211c0.356,2.783,2.168,1.13,1.626-1.041C58.206,81.015,56.619,82.669,57.368,85.211"/>
			<path fill="#FFFFFF" d="M73.433,85.405c-0.259,3.349,2.422,0.441,1.724-1.887C74.409,81.022,73.362,84.346,73.433,85.405"/>
			<path fill="#FFFFFF" d="M77.207,86.057c-0.271,3.29,2.441,0.573,1.725-1.821C78.193,81.771,77.128,84.976,77.207,86.057"/>
			<path fill="#FFFFFF" d="M81.042,87.161c-0.259,3.349,2.421,0.442,1.723-1.886C82.018,82.779,80.971,86.1,81.042,87.161"/>
			<path fill="#FFFFFF" d="M84.946,87.947c-0.255,3.317,2.428,0.526,1.724-1.822C85.932,83.661,84.868,86.867,84.946,87.947"/>
		</g>
		<path fill="#FF2600" d="M88.786,89.31c-0.255,3.32,2.355,0.501,1.659-1.821C89.709,85.034,88.71,88.269,88.786,89.31"/>
		<g>
			<path fill="#FFFFFF" d="M82.668,93.667c-0.26,3.348,2.421,0.442,1.722-1.887C83.643,89.284,82.597,92.607,82.668,93.667"/>
			<path fill="#FFFFFF" d="M86.313,94.059c-0.259,3.348,2.421,0.442,1.724-1.886C87.309,89.741,86.245,93.034,86.313,94.059"/>
		</g>
		<path fill="#FF2600" d="M90.477,94.254c-0.272,3.325,2.438,0.484,1.724-1.887C91.468,89.934,90.408,93.228,90.477,94.254"/>
		<path fill="#FFFFFF" d="M87.94,100.172c-0.223,3.245,2.413,0.413,1.723-1.886C88.915,95.79,87.87,99.113,87.94,100.172"/>
		<path fill="#FF2600" d="M92.556,99.262c-0.22,3.246,2.414,0.411,1.724-1.886C93.545,94.926,92.488,98.25,92.556,99.262"/>
		<path fill="#FFFFFF" d="M87.94,106.871c-0.26,3.348,2.421,0.443,1.723-1.886C88.927,102.529,87.872,105.842,87.94,106.871"/>
		<path fill="#FF2600" d="M92.427,105.768c-0.256,3.316,2.427,0.527,1.723-1.822C93.412,101.481,92.348,104.688,92.427,105.768"/>
		<path fill="#FFFFFF" d="M96.913,104.664c-0.255,3.319,2.356,0.5,1.659-1.822C97.848,100.431,96.851,103.664,96.913,104.664"/>
		<g>
			<path fill="#FF2600" d="M67.191,79.422c-0.259,3.349,2.421,0.442,1.723-1.887C68.186,75.102,67.122,78.396,67.191,79.422"/>
			<path fill="#FF2600" d="M71.806,79.815c-0.255,3.318,2.431,0.527,1.724-1.821C72.787,75.529,71.728,78.734,71.806,79.815"/>
			<path fill="#FF2600" d="M76.163,80.333c-0.255,3.316,2.426,0.528,1.723-1.822C77.147,76.047,76.084,79.252,76.163,80.333"/>
			<path fill="#FF2600" d="M80.455,81.178c-0.27,3.292,2.44,0.572,1.724-1.822C81.44,76.893,80.377,80.098,80.455,81.178"/>
			<path fill="#FF2600" d="M84.294,82.545c-0.257,3.35,2.42,0.44,1.724-1.887C85.282,78.204,84.226,81.516,84.294,82.545"/>
			<path fill="#FF2600" d="M63.028,79.422c0.368,3.107,2.185,0.052,1.367-1.789C63.455,75.521,62.871,78.483,63.028,79.422"/>
		</g>
		<g>
			<path fill="#FFFFFF" d="M65.042,74.285c-0.259,3.349,2.421,0.442,1.723-1.887C66.03,69.942,64.973,73.253,65.042,74.285"/>
			<path fill="#FFFFFF" d="M70.179,74.414c-0.257,3.35,2.421,0.441,1.724-1.886C71.167,70.072,70.111,73.384,70.179,74.414"/>
			<path fill="#FFFFFF" d="M74.8,74.937c-0.257,3.314,2.429,0.528,1.724-1.822C75.784,70.651,74.721,73.854,74.8,74.937"/>
			<path fill="#FFFFFF" d="M78.833,75.518c-0.272,3.326,2.435,0.486,1.723-1.887C79.809,71.134,78.764,74.458,78.833,75.518"/>
			<path fill="#FFFFFF" d="M83.191,76.563c-0.257,3.316,2.427,0.528,1.724-1.821C84.176,72.277,83.112,75.481,83.191,76.563"/>
			<path fill="#FFFFFF" d="M88.329,83.068c-0.27,3.292,2.444,0.57,1.724-1.822C89.309,78.783,88.25,81.987,88.329,83.068"/>
			<path fill="#FFFFFF" d="M92.685,89.31c-0.255,3.317,2.427,0.526,1.723-1.821C93.67,85.024,92.607,88.23,92.685,89.31"/>
			<path fill="#FFFFFF" d="M95.679,93.93c-0.258,3.349,2.423,0.441,1.725-1.886C96.667,89.588,95.61,92.899,95.679,93.93"/>
			<path fill="#FFFFFF" d="M97.047,99.068c-0.259,3.347,2.422,0.442,1.723-1.886C98.037,94.733,96.979,98.056,97.047,99.068"/>
			<path fill="#FFFFFF" d="M100.558,102.514c-0.254,3.318,2.427,0.527,1.724-1.82C101.557,98.273,100.494,101.473,100.558,102.514"
				/>
			<path fill="#FFFFFF" d="M60.421,75.976c0.047,2.83,2.06,1.336,1.757-0.845C61.735,71.943,59.915,73.381,60.421,75.976"/>
			<path fill="#FFFFFF" d="M56.91,77.86c-0.033,2.827,2.031,1.325,1.755-0.845C58.261,73.829,56.403,75.26,56.91,77.86"/>
			<path fill="#FFFFFF" d="M53.919,80.009c0.046,2.83,2.065,1.338,1.756-0.845C55.229,76.005,53.327,77.501,53.919,80.009"/>
		</g>
	</g>
</g>
</svg>
