<?xml version="1.0" encoding="utf-8"?>
<!-- Generator: Adobe Illustrator 16.0.0, SVG Export Plug-In . SVG Version: 6.00 Build 0)  -->
<!DOCTYPE svg PUBLIC "-//W3C//DTD SVG 1.1//EN" "http://www.w3.org/Graphics/SVG/1.1/DTD/svg11.dtd">
<svg version="1.1" xmlns="http://www.w3.org/2000/svg" xmlns:xlink="http://www.w3.org/1999/xlink" x="0px" y="0px"
	 width="393.243px" height="158.108px" viewBox="0 0 393.243 158.108" enable-background="new 0 0 393.243 158.108"
	 xml:space="preserve">
<g id="blue">
	<g>
		<g transform="matrix(.81496 0 0 .81496 293.27 147.47)">
			<g>
				<path fill="#00BFBF" d="M-124.167-39.71c0,13.82-5.183,25.536-15.549,35.128c-10.746,9.594-23.415,14.396-38.009,14.396
					c-14.592,0-27.252-4.803-38.008-14.396c-10.366-9.595-15.55-21.308-15.55-35.128c0-13.822,5.183-25.536,15.55-35.128
					c10.757-9.595,23.428-14.399,38.008-14.399c14.583,0,27.263,4.804,38.009,14.399C-129.351-65.246-124.167-53.53-124.167-39.71z"
					/>
				<path fill="#00BFBF" d="M-355.591-8.632l13.915-18.867c12.35-11.511,26.653-15,42.904-10.477
					c16.252,4.522,33.333,5.012,51.237,1.487c8.946-1.76,16.189-3.978,21.729-6.651l7.008,33.068
					c-2.799,3.052-7.205,5.817-13.252,8.315c-11.746,4.812-25.335,6.255-40.756,4.325c-4.621-0.75-19.151-6.103-43.565-16.062
					C-329.863-19.349-342.935-17.733-355.591-8.632L-355.591-8.632z"/>
				<path fill="#00BFBF" d="M-140.25-114.124c-2.593,0.409-6.063,5.779-10.434,16.075c-2.683,6.139-5.189,12.484-7.492,19.013
					c1.924,3.076,4.418,3.999,7.492,2.845l3.462-8.63c7.29,3.456,11.698,4.615,13.229,3.463c1.153-1.533-2.085-4.593-9.768-9.201
					l2.324-5.168l5.737,1.138c3.847,0.38,6.164,0.202,6.924-0.57c1.543-1.542-1.754-3.669-9.816-6.352
					c4.226-4.228,4.226-8.256,0-12.093c-0.503-0.431-1.062-0.616-1.661-0.52H-140.25z M-231.439-111.944
					c-0.622,0.032-1.181,0.302-1.612,0.806c-1.913,2.683-1.913,5.366,0,8.062c0.771,1.152,1.752,2.12,2.891,2.89
					c-1.912,1.154-3.625,2.313-5.168,3.463c-3.064,2.683-4.223,4.397-3.462,5.169c1.924,1.152,6.142-0.007,12.661-3.462l3.462,5.215
					c-1.531,1.533-3.056,3.069-4.6,4.6c-3.075,3.076-4.043,4.967-2.893,5.737c1.533,1.152,5.562-0.751,12.093-5.737l5.168,7.492
					c3.075,0.38,5.202-0.967,6.354-4.03c-3.455-6.139-7.296-11.93-11.523-17.308C-224.3-107.778-228.747-112.077-231.439-111.944
					L-231.439-111.944z"/>
			</g>
		</g>
		<path opacity="0.1605" enable-background="new    " d="M179.75,56c-5.442,7.698-8.849,16.615-11.439,25.621
			c4.303-0.746,2.196-10.588,8.023-6.538c-2.998-3.496-2.724-9.391,2.896-9.399C174.56,62.317,185.196,59.024,179.75,56L179.75,56z
			 M105.782,57.701c-0.285,3.704,6.264,8.648,3.207,8.869c7.339-2.069,2.652,9.629,9.521,9.422c0.915,2.31,5.704,5.569,2.732,1.023
			c-4.464-6.926-8.687-14.346-15.458-19.314H105.782z"/>
		<path fill="#602623" d="M42.24,115.483c-3.335,0.11-6.482,0.641-9.43,1.547l-2.203,7.304c-0.327,2.93-0.434,6.302-0.348,10.086
			c5.02,1.048,9.482,2.693,13.372,4.985c-0.931-3.377-1.446-6.583-1.545-9.661c0.223-6.017,1.403-10.755,3.555-14.222
			C44.487,115.468,43.353,115.447,42.24,115.483L42.24,115.483z M53.177,117.069c-1.585,3.192-2.699,7.045-3.323,11.515
			c-0.502,6.153-0.337,10.79,0.463,13.874c4.582,2.303,9.305,4.172,14.182,5.644c-2.424-6.471-3.49-11.168-3.168-14.106
			c0.222-6.018,1.412-10.759,3.556-14.221L53.177,117.069L53.177,117.069z M89.232,119.463l-14.685,0.851
			c-1.87,4.03-2.717,8.804-2.512,14.261c0.32,7.142,2.136,12.354,5.449,15.612c6.704,0.933,13.343,0.672,19.941-0.772
			c-5.252-5.116-8.369-9.866-9.429-14.222C86.671,129.579,87.065,124.325,89.232,119.463L89.232,119.463z M21.372,123.56
			l-3.594,3.323l-2.357,3.749l3.787-1.854l3.169-2.048L21.372,123.56L21.372,123.56z"/>
		<g transform="matrix(.81496 0 0 .81496 294.9 150.73)">
			<path opacity="0.3786" fill="#534741" enable-background="new    " d="M-149.064-45.638c0.041,5.861,0.913,12.178,4.513,16.729
				c1.946,2.518,5.404,2.584,7.969,1.311c3.552-1.664,5.692-5.645,6.873-9.548c1.391-4.82,1.802-10.13,0.544-15.041
				c-0.804-2.787-2.296-5.276-3.911-7.561c-2.123-2.852-5.694-4.932-9.049-3.788c-2.338,0.874-3.757,3.379-4.804,5.712
				C-148.459-54.022-149.04-49.778-149.064-45.638L-149.064-45.638z"/>
			<path fill="#222222" d="M-148.033-45.866c0.033,4.669,0.728,9.699,3.595,13.324c1.551,2.004,4.304,2.057,6.346,1.043
				c2.828-1.324,4.533-4.496,5.474-7.603c1.108-3.838,1.436-8.067,0.435-11.978c-0.641-2.22-1.83-4.204-3.116-6.021
				c-1.692-2.271-4.536-3.928-7.208-3.017c-1.862,0.697-2.993,2.69-3.826,4.551c-1.217,3.027-1.681,6.405-1.699,9.703H-148.033z"/>
			<path fill="#FFEAEA" d="M-146.181-46.199c0,2.673,0.797,4.005,2.401,4.005c1.275,0,1.92-1.331,1.92-4.005
				c0-2.673-0.634-4.003-1.92-4.003C-145.384-50.203-146.181-48.872-146.181-46.199z"/>
		</g>
		<g transform="matrix(.86423 0 0 .89721 272.02 107.41)">
			<path opacity="0.3786" fill="#534741" enable-background="new    " d="M-160.877,7.249c-0.049,6.322-1.096,13.135-5.414,18.045
				c-2.334,2.717-6.481,2.788-9.557,1.414c-4.258-1.795-6.826-6.09-8.244-10.299c-1.667-5.198-2.161-10.928-0.653-16.225
				c0.965-3.006,2.755-5.691,4.692-8.155c2.547-3.078,6.83-5.324,10.854-4.088c2.803,0.944,4.507,3.644,5.761,6.164
				C-161.604-1.795-160.905,2.781-160.877,7.249L-160.877,7.249z"/>
			<path fill="#222222" d="M-160.619,7.674c-0.04,5.034-0.872,10.46-4.311,14.371c-1.858,2.163-5.161,2.219-7.611,1.125
				c-3.392-1.429-5.436-4.849-6.565-8.202c-1.329-4.139-1.721-8.702-0.52-12.921c0.768-2.393,2.194-4.532,3.736-6.495
				c2.029-2.45,5.44-4.238,8.644-3.254c2.233,0.751,3.589,2.901,4.588,4.907C-161.198,0.471-160.642,4.116-160.619,7.674
				L-160.619,7.674z"/>
			<path fill="#FFEAEA" d="M-164.853,7.295c0,2.882-0.956,4.319-2.88,4.319c-1.532,0-2.302-1.437-2.302-4.319
				c0-2.884,0.76-4.321,2.302-4.321C-165.809,2.974-164.853,4.411-164.853,7.295z"/>
		</g>
		<g transform="matrix(.81496 0 0 .81496 179.93 1048)" opacity="0.1">
			<path d="M-85.325-1129.325l3.379,16.274c-7.069,5.601-15.581,9.402-25.53,11.366c-9.944,1.999-19.954,2.034-30.009,0.096
				c-10.038-2.01-22.942-6.436-38.708-13.289c-15.782-6.811-29.964-5.721-42.546,3.269l1.073-3.077
				c10.541-8.181,25.897-10.363,46.07-6.569c20.109,3.877,34.892,6.231,44.333,7.059c9.544,0.88,18.327-0.585,26.334-4.398
				C-92.978-1122.471-87.781-1126.041-85.325-1129.325L-85.325-1129.325z"/>
			<path d="M-51.804-1094.726c-12.212-2.58-24.158-10.02-31.262-19.472c-7.44-9.898-10.555-21.296-9.287-33.999
				c0.438-4.394,0.488-4.519,0.961-2.37c1.972,8.949,12.422,18.576,25.79,23.76c11.563,4.485,27.197,5.854,40.109,3.51
				c7.818-1.42,12.328-2.96,19.305-6.598c9.656-5.033,15.389-10.6,18.305-17.776l1.303-3.203l0.399,4.271
				c0.808,8.641-1.68,20.079-5.929,27.255c-2.314,3.906-7.168,9.699-10.73,12.803c-6.58,5.734-17.707,10.855-26.784,12.324
				c-5.791,0.939-16.495,0.695-22.177-0.505H-51.804z"/>
		</g>
		<path opacity="0.3004" fill="#FFFFFF" enable-background="new    " d="M169.69,87.533c0,2.499-1.525,4.724-4.583,6.665
			c-3.333,1.667-7.224,2.5-11.665,2.5c-4.45,0-8.333-0.833-11.666-2.5c-3.049-1.941-4.583-4.166-4.583-6.665
			c0-2.501,1.533-4.583,4.583-6.25c3.333-1.94,7.225-2.915,11.666-2.915c4.441,0,8.333,0.975,11.665,2.915
			C168.165,82.95,169.69,85.033,169.69,87.533z"/>
		<g transform="matrix(.557 0 0 .50473 273.34 278)" opacity="0.4856">
			<path fill="#FCFFB5" d="M-186.484-299.134c0.087,10.249-8.638,18.621-19.488,18.704c-10.849,0.079-19.714-8.159-19.801-18.406
				c0-0.099,0-0.197,0-0.298c-0.086-10.245,8.638-18.619,19.488-18.7c10.848-0.083,19.714,8.157,19.801,18.406
				C-186.483-299.331-186.483-299.231-186.484-299.134z"/>
			<path fill="#D0B47E" d="M-197.299-297.994c0.028,3.483-2.937,6.329-6.625,6.358c-3.688,0.025-6.701-2.775-6.73-6.257
				c-0.001-0.033-0.001-0.066,0-0.101c-0.03-3.483,2.936-6.329,6.623-6.356c3.687-0.027,6.7,2.773,6.732,6.255
				C-197.299-298.06-197.299-298.025-197.299-297.994z"/>
		</g>
	</g>
</g>
<g id="orange">
	<g transform="translate(-3.4576 145.62)">
		<g>
			<path fill="#F49D62" d="M394.676-107.86c0,6.772-2.539,12.511-7.618,17.211c-5.265,4.7-11.471,7.054-18.621,7.054
				c-7.149,0-13.352-2.354-18.621-7.054c-5.078-4.7-7.619-10.439-7.619-17.211c0-6.771,2.54-12.51,7.619-17.21
				c5.27-4.7,11.477-7.054,18.621-7.054c7.144,0,13.356,2.354,18.621,7.054C392.136-120.37,394.676-114.63,394.676-107.86z"/>
			<path fill="#F49D62" d="M281.295-92.633l6.818-9.244c6.049-5.639,13.057-7.349,21.02-5.133
				c7.961,2.217,16.329,2.457,25.101,0.729c4.385-0.862,7.933-1.949,10.646-3.259l3.434,16.2c-1.371,1.496-3.529,2.852-6.492,4.074
				c-5.755,2.357-12.412,3.065-19.968,2.119c-2.264-0.367-9.383-2.99-21.344-7.869C293.9-97.883,287.496-97.092,281.295-92.633
				L281.295-92.633z"/>
			<path fill="#F49D62" d="M386.796-144.317c-1.27,0.2-2.971,2.832-5.111,7.876c-1.314,3.008-2.543,6.116-3.671,9.315
				c0.942,1.507,2.164,1.959,3.671,1.395l1.695-4.229c3.572,1.693,5.731,2.26,6.482,1.696c0.564-0.751-1.022-2.25-4.786-4.508
				l1.138-2.532l2.813,0.558c1.885,0.187,3.02,0.1,3.391-0.278c0.757-0.756-0.858-1.799-4.809-3.113c2.07-2.071,2.07-4.045,0-5.924
				C387.362-144.273,387.088-144.364,386.796-144.317L386.796-144.317z M342.12-143.248c-0.305,0.016-0.578,0.148-0.79,0.396
				c-0.937,1.314-0.937,2.629,0,3.949c0.378,0.564,0.858,1.039,1.417,1.417c-0.938,0.564-1.776,1.132-2.532,1.696
				c-1.501,1.314-2.068,2.153-1.696,2.532c0.943,0.563,3.01-0.003,6.203-1.696l1.695,2.556c-0.75,0.75-1.496,1.503-2.253,2.254
				c-1.507,1.506-1.981,2.433-1.417,2.811c0.75,0.564,2.725-0.368,5.924-2.811l2.533,3.67c1.506,0.187,2.549-0.474,3.113-1.975
				c-1.693-3.007-3.575-5.845-5.646-8.479C345.618-141.206,343.439-143.314,342.12-143.248L342.12-143.248z"/>
		</g>
	</g>
	<path opacity="0.1605" enable-background="new    " d="M383.811,2.232c-3.271,4.629-5.318,9.989-6.875,15.403
		c2.586-0.448,1.318-6.365,4.822-3.931c-1.803-2.101-1.637-5.646,1.74-5.65C380.692,6.031,387.087,4.051,383.811,2.232
		L383.811,2.232z M339.346,3.254c-0.172,2.228,3.766,5.2,1.928,5.333c4.41-1.244,1.594,5.787,5.723,5.663
		c0.55,1.389,3.43,3.348,1.643,0.615C345.956,10.702,343.417,6.241,339.346,3.254L339.346,3.254z"/>
	<path fill="#F38630" d="M342.113,45.285l1.655,7.973c-3.463,2.743-7.633,4.605-12.507,5.567c-4.872,0.979-9.776,0.997-14.702,0.048
		c-4.918-0.985-11.24-3.153-18.964-6.512c-7.732-3.336-14.68-2.802-20.845,1.603l0.526-1.508c5.164-4.009,12.687-5.077,22.57-3.218
		c9.852,1.898,17.094,3.053,21.72,3.458c4.676,0.431,8.979-0.287,12.901-2.155C338.364,48.642,340.91,46.893,342.113,45.285
		L342.113,45.285z"/>
	<path fill="#F38630" d="M358.536,62.235c-5.982-1.264-11.836-4.909-15.316-9.54c-3.645-4.849-5.17-10.434-4.551-16.656
		c0.215-2.153,0.24-2.214,0.472-1.162c0.967,4.385,6.085,9.101,12.636,11.642c5.664,2.197,13.324,2.867,19.65,1.719
		c3.83-0.695,6.039-1.45,9.457-3.232c4.731-2.466,7.539-5.193,8.969-8.708l0.638-1.57l0.196,2.094
		c0.395,4.232-0.824,9.836-2.906,13.352c-1.133,1.914-3.512,4.752-5.256,6.272c-3.224,2.81-8.676,5.318-13.122,6.039
		C366.564,62.943,361.321,62.823,358.536,62.235L358.536,62.235z"/>
	<g transform="matrix(1.0605 0 0 1.1009 -29.539 96.463)">
		<path opacity="0.3786" fill="#534741" enable-background="new    " d="M363.263-53.984c-0.024,3.098-0.536,6.436-2.652,8.841
			c-1.144,1.331-3.175,1.365-4.683,0.693c-2.086-0.879-3.344-2.983-4.039-5.046c-0.816-2.547-1.058-5.354-0.319-7.95
			c0.471-1.473,1.35-2.788,2.298-3.995c1.247-1.507,3.346-2.607,5.317-2.002c1.374,0.462,2.208,1.785,2.823,3.019
			C362.908-58.414,363.249-56.173,363.263-53.984L363.263-53.984z"/>
		<path fill="#222222" d="M363.389-53.776c-0.019,2.466-0.427,5.125-2.112,7.041c-0.911,1.06-2.528,1.088-3.729,0.552
			c-1.661-0.7-2.663-2.376-3.217-4.018c-0.65-2.028-0.842-4.263-0.254-6.33c0.377-1.174,1.075-2.221,1.831-3.183
			c0.994-1.2,2.665-2.076,4.235-1.594c1.093,0.368,1.758,1.421,2.248,2.404C363.106-57.305,363.378-55.519,363.389-53.776
			L363.389-53.776z"/>
		<path fill="#FFEAEA" d="M361.315-53.961c0,1.412-0.468,2.117-1.411,2.117c-0.75,0-1.128-0.704-1.128-2.117
			c0-1.413,0.373-2.117,1.128-2.117C360.847-56.078,361.315-55.374,361.315-53.961z"/>
	</g>
	<path opacity="0.3004" fill="#FFFFFF" enable-background="new    " d="M377.76,21.19c0,1.503-0.916,2.84-2.754,4.007
		c-2.004,1.002-4.344,1.503-7.014,1.503c-2.675,0-5.009-0.501-7.012-1.503c-1.834-1.167-2.756-2.504-2.756-4.007
		s0.922-2.755,2.756-3.757c2.003-1.167,4.342-1.753,7.012-1.753s5.01,0.586,7.014,1.753C376.844,18.435,377.76,19.687,377.76,21.19z
		"/>
	<g transform="matrix(.68347 0 0 .61934 -27.915 305.79)" opacity="0.4856">
		<path fill="#FCFFB5" d="M593.352-421.193c0.043,5.019-4.232,9.122-9.547,9.161c-5.315,0.041-9.659-3.997-9.7-9.016
			c-0.001-0.049-0.001-0.098,0-0.145c-0.043-5.02,4.231-9.123,9.547-9.163c5.315-0.041,9.659,3.996,9.7,9.016
			C593.352-421.291,593.352-421.242,593.352-421.193z"/>
		<path fill="#D0B47E" d="M588.054-420.637c0.014,1.706-1.439,3.1-3.245,3.114c-1.807,0.014-3.283-1.358-3.296-3.065
			c0-0.016,0-0.032,0-0.049c-0.016-1.706,1.437-3.1,3.243-3.114c1.806-0.013,3.283,1.359,3.298,3.065
			C588.054-420.67,588.054-420.652,588.054-420.637z"/>
	</g>
	<g transform="translate(-1.4576 149.62)">
		<path opacity="0.3786" fill="#534741" enable-background="new    " d="M381.458-112.803c0.02,2.871,0.447,5.966,2.211,8.195
			c0.953,1.233,2.646,1.266,3.904,0.643c1.738-0.815,2.788-2.766,3.367-4.678c0.682-2.361,0.883-4.963,0.267-7.369
			c-0.394-1.365-1.126-2.585-1.917-3.704c-1.04-1.397-2.789-2.417-4.434-1.856c-1.145,0.429-1.841,1.655-2.354,2.8
			C381.755-116.91,381.469-114.832,381.458-112.803L381.458-112.803z"/>
		<path fill="#222222" d="M381.963-112.914c0.017,2.286,0.356,4.751,1.761,6.526c0.76,0.982,2.109,1.009,3.109,0.512
			c1.386-0.649,2.221-2.202,2.682-3.726c0.543-1.88,0.703-3.953,0.213-5.868c-0.314-1.088-0.896-2.06-1.526-2.95
			c-0.829-1.113-2.222-1.925-3.53-1.478c-0.912,0.341-1.467,1.317-1.875,2.229C382.2-116.186,381.972-114.531,381.963-112.914
			L381.963-112.914z"/>
		<path fill="#FFEAEA" d="M382.87-113.078c0,1.31,0.391,1.962,1.176,1.962c0.626,0,0.941-0.652,0.941-1.962
			s-0.311-1.962-0.941-1.962C383.261-115.04,382.87-114.388,382.87-113.078z"/>
	</g>
	<path fill="#FA6900" d="M301.135,37.992c-2.005,0.065-3.897,0.384-5.669,0.929l-1.324,4.391c-0.195,1.762-0.26,3.789-0.209,6.063
		c3.018,0.631,5.7,1.62,8.038,2.998c-0.56-2.03-0.869-3.958-0.929-5.809c0.133-3.617,0.844-6.465,2.137-8.55
		C302.486,37.983,301.803,37.969,301.135,37.992L301.135,37.992z M307.711,38.944c-0.953,1.92-1.623,4.235-1.998,6.923
		c-0.302,3.698-0.203,6.486,0.278,8.341c2.755,1.384,5.593,2.508,8.526,3.392c-1.457-3.89-2.099-6.713-1.905-8.479
		c0.134-3.617,0.849-6.467,2.138-8.549L307.711,38.944L307.711,38.944z M329.385,40.384l-8.828,0.511
		c-1.124,2.423-1.633,5.293-1.51,8.573c0.191,4.293,1.283,7.427,3.275,9.386c4.03,0.561,8.021,0.403,11.988-0.465
		c-3.158-3.075-5.031-5.931-5.669-8.55C327.846,46.464,328.083,43.306,329.385,40.384L329.385,40.384z M288.589,42.847l-2.16,1.997
		l-1.418,2.254l2.277-1.115l1.905-1.231L288.589,42.847L288.589,42.847z"/>
</g>
</svg>
