<?xml version="1.0" encoding="utf-8"?>
<!-- Generator: Adobe Illustrator 16.0.0, SVG Export Plug-In . SVG Version: 6.00 Build 0)  -->
<!DOCTYPE svg PUBLIC "-//W3C//DTD SVG 1.1//EN" "http://www.w3.org/Graphics/SVG/1.1/DTD/svg11.dtd">
<svg version="1.1" id="Warstwa_1" xmlns="http://www.w3.org/2000/svg" xmlns:xlink="http://www.w3.org/1999/xlink" x="0px" y="0px"
	 width="169px" height="97px" viewBox="0 0 169 97" enable-background="new 0 0 169 97" xml:space="preserve">
<g>
	<g transform="matrix(-1 0 0 1 948.64 77.471)">
		<path fill="#FCBE63" d="M941.599-19.218c0,9.32-3.496,17.221-10.486,23.69c-7.248,6.471-15.791,9.709-25.633,9.709
			s-18.379-3.238-25.633-9.709c-6.99-6.471-10.486-14.37-10.486-23.69c0-9.321,3.495-17.221,10.486-23.69
			c7.254-6.471,15.799-9.709,25.633-9.709s18.385,3.238,25.633,9.709C938.103-36.439,941.599-28.539,941.599-19.218z"/>
		<path fill="#FCBE63" d="M785.528,1.74l9.384-12.724c8.328-7.763,17.975-10.115,28.935-7.065
			c10.96,3.051,22.479,3.382,34.554,1.004c6.033-1.188,10.918-2.683,14.654-4.486l4.727,22.301c-1.889,2.059-4.86,3.924-8.938,5.607
			c-7.922,3.246-17.086,4.22-27.486,2.917c-3.117-0.505-12.914-4.116-29.379-10.832C802.878-5.487,794.062-4.397,785.528,1.74
			L785.528,1.74z"/>
		<path fill="#FCBE63" d="M930.751-69.404c-1.748,0.276-4.089,3.899-7.036,10.842c-1.81,4.14-3.499,8.42-5.053,12.823
			c1.298,2.074,2.979,2.695,5.053,1.919l2.335-5.82c4.916,2.33,7.889,3.111,8.922,2.335c0.777-1.033-1.406-3.098-6.588-6.204
			l1.567-3.486l3.87,0.768c2.594,0.257,4.155,0.137,4.668-0.384c1.041-1.041-1.182-2.475-6.619-4.285c2.85-2.851,2.85-5.568,0-8.154
			C931.531-69.343,931.154-69.467,930.751-69.404L930.751-69.404z M869.253-67.932c-0.418,0.021-0.795,0.204-1.087,0.543
			c-1.289,1.811-1.289,3.619,0,5.437c0.521,0.777,1.183,1.431,1.95,1.951c-1.289,0.776-2.444,1.558-3.484,2.334
			c-2.066,1.811-2.848,2.966-2.335,3.486c1.298,0.776,4.142-0.004,8.538-2.335l2.335,3.519c-1.033,1.032-2.062,2.068-3.103,3.102
			c-2.073,2.074-2.727,3.35-1.95,3.869c1.033,0.777,3.751-0.506,8.155-3.869l3.485,5.053c2.073,0.256,3.509-0.652,4.286-2.718
			c-2.331-4.141-4.922-8.046-7.771-11.673C874.07-65.121,871.07-68.023,869.253-67.932L869.253-67.932z"/>
	</g>
	<path opacity="0.1605" enable-background="new    " d="M17.234,9.336c4.504,6.371,7.322,13.75,9.466,21.202
		c-3.562-0.617-1.817-8.762-6.64-5.411c2.481-2.892,2.254-7.77-2.395-7.777C21.529,14.564,12.727,11.839,17.234,9.336L17.234,9.336z
		 M78.442,10.743c0.236,3.065-5.183,7.156-2.653,7.34c-6.072-1.712-2.194,7.967-7.878,7.796c-0.757,1.911-4.721,4.608-2.261,0.847
		C69.344,20.995,72.838,14.854,78.442,10.743L78.442,10.743z"/>
	<path fill="#602623" d="M131.03,58.569c2.76,0.09,5.364,0.528,7.803,1.278l1.823,6.045c0.27,2.424,0.358,5.215,0.287,8.347
		c-4.152,0.867-7.846,2.229-11.064,4.125c0.771-2.794,1.197-5.447,1.279-7.995c-0.184-4.979-1.161-8.899-2.941-11.769
		C129.172,58.557,130.11,58.539,131.03,58.569L131.03,58.569z M121.98,59.88c1.311,2.643,2.232,5.83,2.75,9.53
		c0.414,5.091,0.279,8.928-0.384,11.48c-3.792,1.905-7.7,3.452-11.737,4.669c2.006-5.354,2.889-9.24,2.623-11.672
		c-0.186-4.979-1.169-8.902-2.943-11.769L121.98,59.88L121.98,59.88z M92.143,61.862l12.152,0.704
		c1.548,3.334,2.248,7.285,2.079,11.8c-0.265,5.91-1.768,10.224-4.509,12.92c-5.549,0.772-11.041,0.556-16.502-0.64
		c4.347-4.232,6.926-8.164,7.803-11.769C94.262,70.232,93.937,65.885,92.143,61.862L92.143,61.862z M148.299,65.253l2.975,2.75
		l1.951,3.102l-3.135-1.535l-2.623-1.694L148.299,65.253L148.299,65.253z"/>
	<g transform="matrix(-1 0 0 1 946.64 81.471)">
		<path opacity="0.3786" fill="#534741" enable-background="new    " d="M924.156-24.518c0.027,3.952,0.616,8.213,3.045,11.281
			c1.312,1.698,3.644,1.743,5.373,0.884c2.395-1.121,3.838-3.807,4.636-6.438c0.938-3.25,1.215-6.832,0.367-10.144
			c-0.542-1.88-1.55-3.559-2.638-5.099c-1.433-1.923-3.841-3.327-6.104-2.555c-1.576,0.59-2.533,2.278-3.24,3.853
			C924.565-30.172,924.171-27.311,924.156-24.518L924.156-24.518z"/>
		<path fill="#222222" d="M924.852-24.671c0.022,3.147,0.49,6.54,2.425,8.984c1.045,1.353,2.902,1.388,4.279,0.704
			c1.907-0.894,3.057-3.032,3.691-5.128c0.747-2.589,0.968-5.441,0.293-8.079c-0.432-1.496-1.234-2.834-2.102-4.06
			c-1.141-1.532-3.059-2.65-4.86-2.035c-1.255,0.47-2.019,1.814-2.579,3.068C925.177-29.174,924.865-26.896,924.852-24.671
			L924.852-24.671z"/>
		<path fill="#FFEAEA" d="M926.101-24.897c0,1.803,0.537,2.701,1.619,2.701c0.861,0,1.295-0.898,1.295-2.701s-0.428-2.7-1.295-2.7
			C926.638-27.597,926.101-26.7,926.101-24.897z"/>
	</g>
	<g transform="matrix(-1.0605 0 0 1.1009 974.72 28.31)">
		<path opacity="0.3786" fill="#534741" enable-background="new    " d="M866.375,26.283c-0.033,4.263-0.739,8.859-3.65,12.17
			c-1.575,1.832-4.371,1.881-6.446,0.954c-2.872-1.211-4.603-4.107-5.56-6.946c-1.124-3.506-1.457-7.37-0.44-10.943
			c0.651-2.027,1.858-3.838,3.164-5.5c1.718-2.075,4.606-3.589,7.321-2.756c1.891,0.636,3.039,2.457,3.884,4.156
			C865.885,20.185,866.356,23.27,866.375,26.283L866.375,26.283z"/>
		<path fill="#222222" d="M866.548,26.571c-0.026,3.395-0.587,7.055-2.906,9.691c-1.254,1.459-3.481,1.497-5.133,0.759
			c-2.287-0.963-3.667-3.27-4.428-5.531c-0.896-2.792-1.16-5.87-0.351-8.714c0.518-1.615,1.48-3.058,2.519-4.38
			c1.368-1.653,3.669-2.859,5.83-2.195c1.506,0.507,2.421,1.958,3.094,3.31C866.158,21.713,866.533,24.17,866.548,26.571
			L866.548,26.571z"/>
		<path fill="#FFEAEA" d="M863.693,26.314c0,1.944-0.645,2.913-1.941,2.913c-1.033,0-1.554-0.969-1.554-2.913
			s0.513-2.913,1.554-2.913C863.048,23.401,863.693,24.37,863.693,26.314z"/>
	</g>
	<g transform="matrix(-1 0 0 1 1087.7 1182.4)" opacity="0.1">
		<path d="M1013.077-1113.843l2.278,10.976c-4.767,3.776-10.507,6.34-17.216,7.663c-6.707,1.349-13.457,1.373-20.238,0.065
			c-6.77-1.355-15.473-4.34-26.104-8.963c-10.643-4.592-20.207-3.856-28.692,2.205l0.724-2.074
			c7.108-5.519,17.464-6.989,31.069-4.431c13.561,2.614,23.529,4.202,29.897,4.761c6.437,0.593,12.36-0.395,17.759-2.966
			C1007.917-1109.221,1011.421-1111.629,1013.077-1113.843L1013.077-1113.843z"/>
		<path d="M1035.682-1090.511c-8.235-1.739-16.291-6.757-21.083-13.131c-5.018-6.675-7.117-14.361-6.263-22.929
			c0.295-2.964,0.328-3.047,0.648-1.599c1.33,6.035,8.377,12.527,17.393,16.024c7.797,3.024,18.342,3.947,27.049,2.366
			c5.271-0.957,8.314-1.997,13.02-4.449c6.512-3.396,10.377-7.149,12.344-11.988l0.879-2.16l0.27,2.881
			c0.545,5.827-1.134,13.54-4,18.38c-1.56,2.635-4.834,6.541-7.234,8.634c-4.438,3.867-11.943,7.321-18.063,8.313
			c-3.906,0.633-11.124,0.468-14.956-0.342H1035.682z"/>
	</g>
	<path opacity="0.3004" fill="#FFFFFF" enable-background="new    " d="M25.564,35.441c0,2.068,1.262,3.909,3.792,5.516
		c2.758,1.38,5.978,2.068,9.653,2.068c3.682,0,6.895-0.688,9.652-2.068c2.523-1.606,3.793-3.447,3.793-5.516
		s-1.27-3.793-3.793-5.172c-2.758-1.606-5.978-2.413-9.652-2.413c-3.676,0-6.895,0.807-9.653,2.413
		C26.826,31.648,25.564,33.373,25.564,35.441L25.564,35.441z"/>
	<g transform="matrix(-.68347 0 0 .61934 973.09 237.64)" opacity="0.4856">
		<path fill="#FCFFB5" d="M1386.078-273.715c0.058,6.909-5.825,12.556-13.141,12.611c-7.318,0.055-13.297-5.501-13.354-12.411
			c-0.001-0.068-0.001-0.134,0-0.2c-0.06-6.911,5.824-12.557,13.141-12.613c7.317-0.055,13.295,5.501,13.354,12.412
			C1386.08-273.849,1386.08-273.783,1386.078-273.715z"/>
		<path fill="#D0B47E" d="M1378.784-272.947c0.02,2.348-1.98,4.267-4.467,4.286c-2.486,0.019-4.518-1.87-4.538-4.218
			c0-0.024,0-0.046,0-0.068c-0.02-2.349,1.98-4.268,4.466-4.287c2.486-0.019,4.518,1.87,4.538,4.219
			C1378.784-272.993,1378.784-272.971,1378.784-272.947z"/>
	</g>
</g>
</svg>
